%TF.GenerationSoftware,KiCad,Pcbnew,10.0.1*%
%TF.CreationDate,2026-06-16T09:27:04-07:00*%
%TF.ProjectId,ES-Seed3-Devkit-Desktop-Rev4,45532d53-6565-4643-932d-4465766b6974,rev?*%
%TF.SameCoordinates,Original*%
%TF.FileFunction,AssemblyDrawing,Bot*%
%FSLAX45Y45*%
G04 Gerber Fmt 4.5, Leading zero omitted, Abs format (unit mm)*
G04 Created by KiCad (PCBNEW 10.0.1) date 2026-06-16 09:27:04*
%MOMM*%
%LPD*%
G01*
G04 APERTURE LIST*
%ADD10C,0.100000*%
G04 APERTURE END LIST*
D10*
X19581250Y4020000D02*
G75*
G02*
X19378750Y4020000I-101250J0D01*
G01*
X19378750Y4020000D02*
G75*
G02*
X19581250Y4020000I101250J0D01*
G01*
X19581250Y4520000D02*
G75*
G02*
X19378750Y4520000I-101250J0D01*
G01*
X19378750Y4520000D02*
G75*
G02*
X19581250Y4520000I101250J0D01*
G01*
X19150300Y3520000D02*
G75*
G02*
X18809700Y3520000I-170300J0D01*
G01*
X18809700Y3520000D02*
G75*
G02*
X19150300Y3520000I170300J0D01*
G01*
X19150300Y5020000D02*
G75*
G02*
X18809700Y5020000I-170300J0D01*
G01*
X18809700Y5020000D02*
G75*
G02*
X19150300Y5020000I170300J0D01*
G01*
X18581250Y5020000D02*
G75*
G02*
X18378750Y5020000I-101250J0D01*
G01*
X18378750Y5020000D02*
G75*
G02*
X18581250Y5020000I101250J0D01*
G01*
X18581250Y4270000D02*
G75*
G02*
X18378750Y4270000I-101250J0D01*
G01*
X18378750Y4270000D02*
G75*
G02*
X18581250Y4270000I101250J0D01*
G01*
X18581250Y3520000D02*
G75*
G02*
X18378750Y3520000I-101250J0D01*
G01*
X18378750Y3520000D02*
G75*
G02*
X18581250Y3520000I101250J0D01*
G01*
X18332250Y4770000D02*
G75*
G02*
X18129750Y4770000I-101250J0D01*
G01*
X18129750Y4770000D02*
G75*
G02*
X18332250Y4770000I101250J0D01*
G01*
X18332250Y3770000D02*
G75*
G02*
X18129750Y3770000I-101250J0D01*
G01*
X18129750Y3770000D02*
G75*
G02*
X18332250Y3770000I101250J0D01*
G01*
X19581250Y6420000D02*
G75*
G02*
X19378750Y6420000I-101250J0D01*
G01*
X19378750Y6420000D02*
G75*
G02*
X19581250Y6420000I101250J0D01*
G01*
X19581250Y6920000D02*
G75*
G02*
X19378750Y6920000I-101250J0D01*
G01*
X19378750Y6920000D02*
G75*
G02*
X19581250Y6920000I101250J0D01*
G01*
X19150300Y5920000D02*
G75*
G02*
X18809700Y5920000I-170300J0D01*
G01*
X18809700Y5920000D02*
G75*
G02*
X19150300Y5920000I170300J0D01*
G01*
X19150300Y7420000D02*
G75*
G02*
X18809700Y7420000I-170300J0D01*
G01*
X18809700Y7420000D02*
G75*
G02*
X19150300Y7420000I170300J0D01*
G01*
X18581250Y7420000D02*
G75*
G02*
X18378750Y7420000I-101250J0D01*
G01*
X18378750Y7420000D02*
G75*
G02*
X18581250Y7420000I101250J0D01*
G01*
X18581250Y6670000D02*
G75*
G02*
X18378750Y6670000I-101250J0D01*
G01*
X18378750Y6670000D02*
G75*
G02*
X18581250Y6670000I101250J0D01*
G01*
X18581250Y5920000D02*
G75*
G02*
X18378750Y5920000I-101250J0D01*
G01*
X18378750Y5920000D02*
G75*
G02*
X18581250Y5920000I101250J0D01*
G01*
X18332250Y7170000D02*
G75*
G02*
X18129750Y7170000I-101250J0D01*
G01*
X18129750Y7170000D02*
G75*
G02*
X18332250Y7170000I101250J0D01*
G01*
X18332250Y6170000D02*
G75*
G02*
X18129750Y6170000I-101250J0D01*
G01*
X18129750Y6170000D02*
G75*
G02*
X18332250Y6170000I101250J0D01*
G01*
X850000Y10600000D02*
G75*
G02*
X150000Y10600000I-350000J0D01*
G01*
X150000Y10600000D02*
G75*
G02*
X850000Y10600000I350000J0D01*
G01*
X14912250Y4882500D02*
X14912250Y4717500D01*
X14747250Y4717500D01*
X14747250Y4882500D01*
X14912250Y4882500D01*
X15113923Y4882500D02*
X15162250Y4834173D01*
X15162250Y4765827D01*
X15113923Y4717500D01*
X15045577Y4717500D01*
X14997250Y4765827D01*
X14997250Y4834173D01*
X15045577Y4882500D01*
X15113923Y4882500D01*
X15363923Y4882500D02*
X15412250Y4834173D01*
X15412250Y4765827D01*
X15363923Y4717500D01*
X15295577Y4717500D01*
X15247250Y4765827D01*
X15247250Y4834173D01*
X15295577Y4882500D01*
X15363923Y4882500D01*
X14785550Y5655800D02*
X14785550Y5344200D01*
X14473950Y5344200D01*
X14473950Y5655800D01*
X14785550Y5655800D01*
X15685550Y5655800D02*
X15685550Y5344200D01*
X15373950Y5344200D01*
X15373950Y5655800D01*
X15685550Y5655800D01*
X12322500Y7310000D02*
G75*
G02*
X12157500Y7310000I-82500J0D01*
G01*
X12157500Y7310000D02*
G75*
G02*
X12322500Y7310000I82500J0D01*
G01*
X12322500Y7610000D02*
G75*
G02*
X12157500Y7610000I-82500J0D01*
G01*
X12157500Y7610000D02*
G75*
G02*
X12322500Y7610000I82500J0D01*
G01*
X12322500Y8460000D02*
G75*
G02*
X12157500Y8460000I-82500J0D01*
G01*
X12157500Y8460000D02*
G75*
G02*
X12322500Y8460000I82500J0D01*
G01*
X8800650Y4882500D02*
X8800650Y4717500D01*
X8635650Y4717500D01*
X8635650Y4882500D01*
X8800650Y4882500D01*
X9002323Y4882500D02*
X9050650Y4834173D01*
X9050650Y4765827D01*
X9002323Y4717500D01*
X8933977Y4717500D01*
X8885650Y4765827D01*
X8885650Y4834173D01*
X8933977Y4882500D01*
X9002323Y4882500D01*
X9252323Y4882500D02*
X9300650Y4834173D01*
X9300650Y4765827D01*
X9252323Y4717500D01*
X9183977Y4717500D01*
X9135650Y4765827D01*
X9135650Y4834173D01*
X9183977Y4882500D01*
X9252323Y4882500D01*
X8673950Y5655800D02*
X8673950Y5344200D01*
X8362350Y5344200D01*
X8362350Y5655800D01*
X8673950Y5655800D01*
X9573950Y5655800D02*
X9573950Y5344200D01*
X9262350Y5344200D01*
X9262350Y5655800D01*
X9573950Y5655800D01*
X11856450Y4882500D02*
X11856450Y4717500D01*
X11691450Y4717500D01*
X11691450Y4882500D01*
X11856450Y4882500D01*
X12058123Y4882500D02*
X12106450Y4834173D01*
X12106450Y4765827D01*
X12058123Y4717500D01*
X11989777Y4717500D01*
X11941450Y4765827D01*
X11941450Y4834173D01*
X11989777Y4882500D01*
X12058123Y4882500D01*
X12308123Y4882500D02*
X12356450Y4834173D01*
X12356450Y4765827D01*
X12308123Y4717500D01*
X12239777Y4717500D01*
X12191450Y4765827D01*
X12191450Y4834173D01*
X12239777Y4882500D01*
X12308123Y4882500D01*
X11729750Y5655800D02*
X11729750Y5344200D01*
X11418150Y5344200D01*
X11418150Y5655800D01*
X11729750Y5655800D01*
X12629750Y5655800D02*
X12629750Y5344200D01*
X12318150Y5344200D01*
X12318150Y5655800D01*
X12629750Y5655800D01*
X4627870Y1283620D02*
X4485630Y1283620D01*
X4485630Y1141380D02*
G75*
G02*
X4485630Y1283620I0J71120D01*
G01*
X4485630Y1141380D02*
X4627870Y1141380D01*
X4627870Y1141380D02*
G75*
G03*
X4627870Y1283620I0J71120D01*
G01*
X4627870Y1537620D02*
X4485630Y1537620D01*
X4485630Y1395380D02*
G75*
G02*
X4485630Y1537620I0J71120D01*
G01*
X4485630Y1395380D02*
X4627870Y1395380D01*
X4627870Y1395380D02*
G75*
G03*
X4627870Y1537620I0J71120D01*
G01*
X4627870Y1791620D02*
X4485630Y1791620D01*
X4485630Y1649380D02*
G75*
G02*
X4485630Y1791620I0J71120D01*
G01*
X4485630Y1649380D02*
X4627870Y1649380D01*
X4627870Y1649380D02*
G75*
G03*
X4627870Y1791620I0J71120D01*
G01*
X6668860Y2826060D02*
G75*
G02*
X6480900Y2826060I-93980J0D01*
G01*
X6480900Y2826060D02*
G75*
G02*
X6668860Y2826060I93980J0D01*
G01*
X7319100Y2826060D02*
G75*
G02*
X7131140Y2826060I-93980J0D01*
G01*
X7131140Y2826060D02*
G75*
G02*
X7319100Y2826060I93980J0D01*
G01*
X6668860Y2373940D02*
G75*
G02*
X6480900Y2373940I-93980J0D01*
G01*
X6480900Y2373940D02*
G75*
G02*
X6668860Y2373940I93980J0D01*
G01*
X7319100Y2373940D02*
G75*
G02*
X7131140Y2373940I-93980J0D01*
G01*
X7131140Y2373940D02*
G75*
G02*
X7319100Y2373940I93980J0D01*
G01*
X5744850Y4882500D02*
X5744850Y4717500D01*
X5579850Y4717500D01*
X5579850Y4882500D01*
X5744850Y4882500D01*
X5946523Y4882500D02*
X5994850Y4834173D01*
X5994850Y4765827D01*
X5946523Y4717500D01*
X5878177Y4717500D01*
X5829850Y4765827D01*
X5829850Y4834173D01*
X5878177Y4882500D01*
X5946523Y4882500D01*
X6196523Y4882500D02*
X6244850Y4834173D01*
X6244850Y4765827D01*
X6196523Y4717500D01*
X6128177Y4717500D01*
X6079850Y4765827D01*
X6079850Y4834173D01*
X6128177Y4882500D01*
X6196523Y4882500D01*
X5618150Y5655800D02*
X5618150Y5344200D01*
X5306550Y5344200D01*
X5306550Y5655800D01*
X5618150Y5655800D01*
X6518150Y5655800D02*
X6518150Y5344200D01*
X6206550Y5344200D01*
X6206550Y5655800D01*
X6518150Y5655800D01*
X10354574Y1226060D02*
G75*
G02*
X10166614Y1226060I-93980J0D01*
G01*
X10166614Y1226060D02*
G75*
G02*
X10354574Y1226060I93980J0D01*
G01*
X11004814Y1226060D02*
G75*
G02*
X10816854Y1226060I-93980J0D01*
G01*
X10816854Y1226060D02*
G75*
G02*
X11004814Y1226060I93980J0D01*
G01*
X10354574Y773940D02*
G75*
G02*
X10166614Y773940I-93980J0D01*
G01*
X10166614Y773940D02*
G75*
G02*
X10354574Y773940I93980J0D01*
G01*
X11004814Y773940D02*
G75*
G02*
X10816854Y773940I-93980J0D01*
G01*
X10816854Y773940D02*
G75*
G02*
X11004814Y773940I93980J0D01*
G01*
X6668860Y1226060D02*
G75*
G02*
X6480900Y1226060I-93980J0D01*
G01*
X6480900Y1226060D02*
G75*
G02*
X6668860Y1226060I93980J0D01*
G01*
X7319100Y1226060D02*
G75*
G02*
X7131140Y1226060I-93980J0D01*
G01*
X7131140Y1226060D02*
G75*
G02*
X7319100Y1226060I93980J0D01*
G01*
X6668860Y773940D02*
G75*
G02*
X6480900Y773940I-93980J0D01*
G01*
X6480900Y773940D02*
G75*
G02*
X6668860Y773940I93980J0D01*
G01*
X7319100Y773940D02*
G75*
G02*
X7131140Y773940I-93980J0D01*
G01*
X7131140Y773940D02*
G75*
G02*
X7319100Y773940I93980J0D01*
G01*
X8282500Y8870000D02*
G75*
G02*
X8117500Y8870000I-82500J0D01*
G01*
X8117500Y8870000D02*
G75*
G02*
X8282500Y8870000I82500J0D01*
G01*
X8282500Y9170000D02*
G75*
G02*
X8117500Y9170000I-82500J0D01*
G01*
X8117500Y9170000D02*
G75*
G02*
X8282500Y9170000I82500J0D01*
G01*
X8282500Y10020000D02*
G75*
G02*
X8117500Y10020000I-82500J0D01*
G01*
X8117500Y10020000D02*
G75*
G02*
X8282500Y10020000I82500J0D01*
G01*
X11583146Y2826060D02*
G75*
G02*
X11395186Y2826060I-93980J0D01*
G01*
X11395186Y2826060D02*
G75*
G02*
X11583146Y2826060I93980J0D01*
G01*
X12233386Y2826060D02*
G75*
G02*
X12045426Y2826060I-93980J0D01*
G01*
X12045426Y2826060D02*
G75*
G02*
X12233386Y2826060I93980J0D01*
G01*
X11583146Y2373940D02*
G75*
G02*
X11395186Y2373940I-93980J0D01*
G01*
X11395186Y2373940D02*
G75*
G02*
X11583146Y2373940I93980J0D01*
G01*
X12233386Y2373940D02*
G75*
G02*
X12045426Y2373940I-93980J0D01*
G01*
X12045426Y2373940D02*
G75*
G02*
X12233386Y2373940I93980J0D01*
G01*
X12322500Y8870000D02*
G75*
G02*
X12157500Y8870000I-82500J0D01*
G01*
X12157500Y8870000D02*
G75*
G02*
X12322500Y8870000I82500J0D01*
G01*
X12322500Y9170000D02*
G75*
G02*
X12157500Y9170000I-82500J0D01*
G01*
X12157500Y9170000D02*
G75*
G02*
X12322500Y9170000I82500J0D01*
G01*
X12322500Y10020000D02*
G75*
G02*
X12157500Y10020000I-82500J0D01*
G01*
X12157500Y10020000D02*
G75*
G02*
X12322500Y10020000I82500J0D01*
G01*
X194500Y2885500D02*
X194500Y3055500D01*
X364500Y3055500D01*
X364500Y2885500D01*
X194500Y2885500D01*
X618500Y2970500D02*
G75*
G02*
X448500Y2970500I-85000J0D01*
G01*
X448500Y2970500D02*
G75*
G02*
X618500Y2970500I85000J0D01*
G01*
X872500Y2970500D02*
G75*
G02*
X702500Y2970500I-85000J0D01*
G01*
X702500Y2970500D02*
G75*
G02*
X872500Y2970500I85000J0D01*
G01*
X1126500Y2970500D02*
G75*
G02*
X956500Y2970500I-85000J0D01*
G01*
X956500Y2970500D02*
G75*
G02*
X1126500Y2970500I85000J0D01*
G01*
X1380500Y2970500D02*
G75*
G02*
X1210500Y2970500I-85000J0D01*
G01*
X1210500Y2970500D02*
G75*
G02*
X1380500Y2970500I85000J0D01*
G01*
X1634500Y2970500D02*
G75*
G02*
X1464500Y2970500I-85000J0D01*
G01*
X1464500Y2970500D02*
G75*
G02*
X1634500Y2970500I85000J0D01*
G01*
X1888500Y2970500D02*
G75*
G02*
X1718500Y2970500I-85000J0D01*
G01*
X1718500Y2970500D02*
G75*
G02*
X1888500Y2970500I85000J0D01*
G01*
X2142500Y2970500D02*
G75*
G02*
X1972500Y2970500I-85000J0D01*
G01*
X1972500Y2970500D02*
G75*
G02*
X2142500Y2970500I85000J0D01*
G01*
X2396500Y2970500D02*
G75*
G02*
X2226500Y2970500I-85000J0D01*
G01*
X2226500Y2970500D02*
G75*
G02*
X2396500Y2970500I85000J0D01*
G01*
X2650500Y2970500D02*
G75*
G02*
X2480500Y2970500I-85000J0D01*
G01*
X2480500Y2970500D02*
G75*
G02*
X2650500Y2970500I85000J0D01*
G01*
X2904500Y2970500D02*
G75*
G02*
X2734500Y2970500I-85000J0D01*
G01*
X2734500Y2970500D02*
G75*
G02*
X2904500Y2970500I85000J0D01*
G01*
X3158500Y2970500D02*
G75*
G02*
X2988500Y2970500I-85000J0D01*
G01*
X2988500Y2970500D02*
G75*
G02*
X3158500Y2970500I85000J0D01*
G01*
X3412500Y2970500D02*
G75*
G02*
X3242500Y2970500I-85000J0D01*
G01*
X3242500Y2970500D02*
G75*
G02*
X3412500Y2970500I85000J0D01*
G01*
X3666500Y2970500D02*
G75*
G02*
X3496500Y2970500I-85000J0D01*
G01*
X3496500Y2970500D02*
G75*
G02*
X3666500Y2970500I85000J0D01*
G01*
X3920500Y2970500D02*
G75*
G02*
X3750500Y2970500I-85000J0D01*
G01*
X3750500Y2970500D02*
G75*
G02*
X3920500Y2970500I85000J0D01*
G01*
X4174500Y2970500D02*
G75*
G02*
X4004500Y2970500I-85000J0D01*
G01*
X4004500Y2970500D02*
G75*
G02*
X4174500Y2970500I85000J0D01*
G01*
X4428500Y2970500D02*
G75*
G02*
X4258500Y2970500I-85000J0D01*
G01*
X4258500Y2970500D02*
G75*
G02*
X4428500Y2970500I85000J0D01*
G01*
X4682500Y2970500D02*
G75*
G02*
X4512500Y2970500I-85000J0D01*
G01*
X4512500Y2970500D02*
G75*
G02*
X4682500Y2970500I85000J0D01*
G01*
X4936500Y2970500D02*
G75*
G02*
X4766500Y2970500I-85000J0D01*
G01*
X4766500Y2970500D02*
G75*
G02*
X4936500Y2970500I85000J0D01*
G01*
X5190500Y2970500D02*
G75*
G02*
X5020500Y2970500I-85000J0D01*
G01*
X5020500Y2970500D02*
G75*
G02*
X5190500Y2970500I85000J0D01*
G01*
X5190500Y4494500D02*
G75*
G02*
X5020500Y4494500I-85000J0D01*
G01*
X5020500Y4494500D02*
G75*
G02*
X5190500Y4494500I85000J0D01*
G01*
X4936500Y4494500D02*
G75*
G02*
X4766500Y4494500I-85000J0D01*
G01*
X4766500Y4494500D02*
G75*
G02*
X4936500Y4494500I85000J0D01*
G01*
X4682500Y4494500D02*
G75*
G02*
X4512500Y4494500I-85000J0D01*
G01*
X4512500Y4494500D02*
G75*
G02*
X4682500Y4494500I85000J0D01*
G01*
X4428500Y4494500D02*
G75*
G02*
X4258500Y4494500I-85000J0D01*
G01*
X4258500Y4494500D02*
G75*
G02*
X4428500Y4494500I85000J0D01*
G01*
X4174500Y4494500D02*
G75*
G02*
X4004500Y4494500I-85000J0D01*
G01*
X4004500Y4494500D02*
G75*
G02*
X4174500Y4494500I85000J0D01*
G01*
X3920500Y4494500D02*
G75*
G02*
X3750500Y4494500I-85000J0D01*
G01*
X3750500Y4494500D02*
G75*
G02*
X3920500Y4494500I85000J0D01*
G01*
X3666500Y4494500D02*
G75*
G02*
X3496500Y4494500I-85000J0D01*
G01*
X3496500Y4494500D02*
G75*
G02*
X3666500Y4494500I85000J0D01*
G01*
X3412500Y4494500D02*
G75*
G02*
X3242500Y4494500I-85000J0D01*
G01*
X3242500Y4494500D02*
G75*
G02*
X3412500Y4494500I85000J0D01*
G01*
X3158500Y4494500D02*
G75*
G02*
X2988500Y4494500I-85000J0D01*
G01*
X2988500Y4494500D02*
G75*
G02*
X3158500Y4494500I85000J0D01*
G01*
X2904500Y4494500D02*
G75*
G02*
X2734500Y4494500I-85000J0D01*
G01*
X2734500Y4494500D02*
G75*
G02*
X2904500Y4494500I85000J0D01*
G01*
X2650500Y4494500D02*
G75*
G02*
X2480500Y4494500I-85000J0D01*
G01*
X2480500Y4494500D02*
G75*
G02*
X2650500Y4494500I85000J0D01*
G01*
X2396500Y4494500D02*
G75*
G02*
X2226500Y4494500I-85000J0D01*
G01*
X2226500Y4494500D02*
G75*
G02*
X2396500Y4494500I85000J0D01*
G01*
X2142500Y4494500D02*
G75*
G02*
X1972500Y4494500I-85000J0D01*
G01*
X1972500Y4494500D02*
G75*
G02*
X2142500Y4494500I85000J0D01*
G01*
X1888500Y4494500D02*
G75*
G02*
X1718500Y4494500I-85000J0D01*
G01*
X1718500Y4494500D02*
G75*
G02*
X1888500Y4494500I85000J0D01*
G01*
X1634500Y4494500D02*
G75*
G02*
X1464500Y4494500I-85000J0D01*
G01*
X1464500Y4494500D02*
G75*
G02*
X1634500Y4494500I85000J0D01*
G01*
X1380500Y4494500D02*
G75*
G02*
X1210500Y4494500I-85000J0D01*
G01*
X1210500Y4494500D02*
G75*
G02*
X1380500Y4494500I85000J0D01*
G01*
X1126500Y4494500D02*
G75*
G02*
X956500Y4494500I-85000J0D01*
G01*
X956500Y4494500D02*
G75*
G02*
X1126500Y4494500I85000J0D01*
G01*
X872500Y4494500D02*
G75*
G02*
X702500Y4494500I-85000J0D01*
G01*
X702500Y4494500D02*
G75*
G02*
X872500Y4494500I85000J0D01*
G01*
X618500Y4494500D02*
G75*
G02*
X448500Y4494500I-85000J0D01*
G01*
X448500Y4494500D02*
G75*
G02*
X618500Y4494500I85000J0D01*
G01*
X364500Y4494500D02*
G75*
G02*
X194500Y4494500I-85000J0D01*
G01*
X194500Y4494500D02*
G75*
G02*
X364500Y4494500I85000J0D01*
G01*
X8282500Y7310000D02*
G75*
G02*
X8117500Y7310000I-82500J0D01*
G01*
X8117500Y7310000D02*
G75*
G02*
X8282500Y7310000I82500J0D01*
G01*
X8282500Y7610000D02*
G75*
G02*
X8117500Y7610000I-82500J0D01*
G01*
X8117500Y7610000D02*
G75*
G02*
X8282500Y7610000I82500J0D01*
G01*
X8282500Y8460000D02*
G75*
G02*
X8117500Y8460000I-82500J0D01*
G01*
X8117500Y8460000D02*
G75*
G02*
X8282500Y8460000I82500J0D01*
G01*
X10328550Y4882500D02*
X10328550Y4717500D01*
X10163550Y4717500D01*
X10163550Y4882500D01*
X10328550Y4882500D01*
X10530223Y4882500D02*
X10578550Y4834173D01*
X10578550Y4765827D01*
X10530223Y4717500D01*
X10461877Y4717500D01*
X10413550Y4765827D01*
X10413550Y4834173D01*
X10461877Y4882500D01*
X10530223Y4882500D01*
X10780223Y4882500D02*
X10828550Y4834173D01*
X10828550Y4765827D01*
X10780223Y4717500D01*
X10711877Y4717500D01*
X10663550Y4765827D01*
X10663550Y4834173D01*
X10711877Y4882500D01*
X10780223Y4882500D01*
X10201850Y5655800D02*
X10201850Y5344200D01*
X9890250Y5344200D01*
X9890250Y5655800D01*
X10201850Y5655800D01*
X11101850Y5655800D02*
X11101850Y5344200D01*
X10790250Y5344200D01*
X10790250Y5655800D01*
X11101850Y5655800D01*
X9126003Y2826060D02*
G75*
G02*
X8938043Y2826060I-93980J0D01*
G01*
X8938043Y2826060D02*
G75*
G02*
X9126003Y2826060I93980J0D01*
G01*
X9776243Y2826060D02*
G75*
G02*
X9588283Y2826060I-93980J0D01*
G01*
X9588283Y2826060D02*
G75*
G02*
X9776243Y2826060I93980J0D01*
G01*
X9126003Y2373940D02*
G75*
G02*
X8938043Y2373940I-93980J0D01*
G01*
X8938043Y2373940D02*
G75*
G02*
X9126003Y2373940I93980J0D01*
G01*
X9776243Y2373940D02*
G75*
G02*
X9588283Y2373940I-93980J0D01*
G01*
X9588283Y2373940D02*
G75*
G02*
X9776243Y2373940I93980J0D01*
G01*
X14040289Y1226060D02*
G75*
G02*
X13852329Y1226060I-93980J0D01*
G01*
X13852329Y1226060D02*
G75*
G02*
X14040289Y1226060I93980J0D01*
G01*
X14690529Y1226060D02*
G75*
G02*
X14502569Y1226060I-93980J0D01*
G01*
X14502569Y1226060D02*
G75*
G02*
X14690529Y1226060I93980J0D01*
G01*
X14040289Y773940D02*
G75*
G02*
X13852329Y773940I-93980J0D01*
G01*
X13852329Y773940D02*
G75*
G02*
X14040289Y773940I93980J0D01*
G01*
X14690529Y773940D02*
G75*
G02*
X14502569Y773940I-93980J0D01*
G01*
X14502569Y773940D02*
G75*
G02*
X14690529Y773940I93980J0D01*
G01*
X11312500Y8870000D02*
G75*
G02*
X11147500Y8870000I-82500J0D01*
G01*
X11147500Y8870000D02*
G75*
G02*
X11312500Y8870000I82500J0D01*
G01*
X11312500Y9170000D02*
G75*
G02*
X11147500Y9170000I-82500J0D01*
G01*
X11147500Y9170000D02*
G75*
G02*
X11312500Y9170000I82500J0D01*
G01*
X11312500Y10020000D02*
G75*
G02*
X11147500Y10020000I-82500J0D01*
G01*
X11147500Y10020000D02*
G75*
G02*
X11312500Y10020000I82500J0D01*
G01*
X17445000Y630000D02*
G75*
G02*
X17275000Y630000I-85000J0D01*
G01*
X17275000Y630000D02*
G75*
G02*
X17445000Y630000I85000J0D01*
G01*
X17445000Y1330000D02*
G75*
G02*
X17275000Y1330000I-85000J0D01*
G01*
X17275000Y1330000D02*
G75*
G02*
X17445000Y1330000I85000J0D01*
G01*
X13378500Y9711500D02*
G75*
G02*
X13078500Y9711500I-150000J0D01*
G01*
X13078500Y9711500D02*
G75*
G02*
X13378500Y9711500I150000J0D01*
G01*
X15001500Y9711500D02*
G75*
G02*
X14701500Y9711500I-150000J0D01*
G01*
X14701500Y9711500D02*
G75*
G02*
X15001500Y9711500I150000J0D01*
G01*
X13378500Y10346500D02*
G75*
G02*
X13078500Y10346500I-150000J0D01*
G01*
X13078500Y10346500D02*
G75*
G02*
X13378500Y10346500I150000J0D01*
G01*
X15001500Y10346500D02*
G75*
G02*
X14701500Y10346500I-150000J0D01*
G01*
X14701500Y10346500D02*
G75*
G02*
X15001500Y10346500I150000J0D01*
G01*
X13378500Y9076500D02*
G75*
G02*
X13078500Y9076500I-150000J0D01*
G01*
X13078500Y9076500D02*
G75*
G02*
X13378500Y9076500I150000J0D01*
G01*
X15001500Y9076500D02*
G75*
G02*
X14701500Y9076500I-150000J0D01*
G01*
X14701500Y9076500D02*
G75*
G02*
X15001500Y9076500I150000J0D01*
G01*
X7897431Y2826060D02*
G75*
G02*
X7709471Y2826060I-93980J0D01*
G01*
X7709471Y2826060D02*
G75*
G02*
X7897431Y2826060I93980J0D01*
G01*
X8547671Y2826060D02*
G75*
G02*
X8359711Y2826060I-93980J0D01*
G01*
X8359711Y2826060D02*
G75*
G02*
X8547671Y2826060I93980J0D01*
G01*
X7897431Y2373940D02*
G75*
G02*
X7709471Y2373940I-93980J0D01*
G01*
X7709471Y2373940D02*
G75*
G02*
X7897431Y2373940I93980J0D01*
G01*
X8547671Y2373940D02*
G75*
G02*
X8359711Y2373940I-93980J0D01*
G01*
X8359711Y2373940D02*
G75*
G02*
X8547671Y2373940I93980J0D01*
G01*
X12811717Y1226060D02*
G75*
G02*
X12623757Y1226060I-93980J0D01*
G01*
X12623757Y1226060D02*
G75*
G02*
X12811717Y1226060I93980J0D01*
G01*
X13461957Y1226060D02*
G75*
G02*
X13273997Y1226060I-93980J0D01*
G01*
X13273997Y1226060D02*
G75*
G02*
X13461957Y1226060I93980J0D01*
G01*
X12811717Y773940D02*
G75*
G02*
X12623757Y773940I-93980J0D01*
G01*
X12623757Y773940D02*
G75*
G02*
X12811717Y773940I93980J0D01*
G01*
X13461957Y773940D02*
G75*
G02*
X13273997Y773940I-93980J0D01*
G01*
X13273997Y773940D02*
G75*
G02*
X13461957Y773940I93980J0D01*
G01*
X632500Y7280000D02*
G75*
G02*
X567500Y7280000I-32500J0D01*
G01*
X567500Y7280000D02*
G75*
G02*
X632500Y7280000I32500J0D01*
G01*
X632500Y6702000D02*
G75*
G02*
X567500Y6702000I-32500J0D01*
G01*
X567500Y6702000D02*
G75*
G02*
X632500Y6702000I32500J0D01*
G01*
X850000Y500000D02*
G75*
G02*
X150000Y500000I-350000J0D01*
G01*
X150000Y500000D02*
G75*
G02*
X850000Y500000I350000J0D01*
G01*
X7897431Y1226060D02*
G75*
G02*
X7709471Y1226060I-93980J0D01*
G01*
X7709471Y1226060D02*
G75*
G02*
X7897431Y1226060I93980J0D01*
G01*
X8547671Y1226060D02*
G75*
G02*
X8359711Y1226060I-93980J0D01*
G01*
X8359711Y1226060D02*
G75*
G02*
X8547671Y1226060I93980J0D01*
G01*
X7897431Y773940D02*
G75*
G02*
X7709471Y773940I-93980J0D01*
G01*
X7709471Y773940D02*
G75*
G02*
X7897431Y773940I93980J0D01*
G01*
X8547671Y773940D02*
G75*
G02*
X8359711Y773940I-93980J0D01*
G01*
X8359711Y773940D02*
G75*
G02*
X8547671Y773940I93980J0D01*
G01*
X13384350Y4882500D02*
X13384350Y4717500D01*
X13219350Y4717500D01*
X13219350Y4882500D01*
X13384350Y4882500D01*
X13586023Y4882500D02*
X13634350Y4834173D01*
X13634350Y4765827D01*
X13586023Y4717500D01*
X13517677Y4717500D01*
X13469350Y4765827D01*
X13469350Y4834173D01*
X13517677Y4882500D01*
X13586023Y4882500D01*
X13836023Y4882500D02*
X13884350Y4834173D01*
X13884350Y4765827D01*
X13836023Y4717500D01*
X13767677Y4717500D01*
X13719350Y4765827D01*
X13719350Y4834173D01*
X13767677Y4882500D01*
X13836023Y4882500D01*
X13257650Y5655800D02*
X13257650Y5344200D01*
X12946050Y5344200D01*
X12946050Y5655800D01*
X13257650Y5655800D01*
X14157650Y5655800D02*
X14157650Y5344200D01*
X13846050Y5344200D01*
X13846050Y5655800D01*
X14157650Y5655800D01*
X11312500Y7310000D02*
G75*
G02*
X11147500Y7310000I-82500J0D01*
G01*
X11147500Y7310000D02*
G75*
G02*
X11312500Y7310000I82500J0D01*
G01*
X11312500Y7610000D02*
G75*
G02*
X11147500Y7610000I-82500J0D01*
G01*
X11147500Y7610000D02*
G75*
G02*
X11312500Y7610000I82500J0D01*
G01*
X11312500Y8460000D02*
G75*
G02*
X11147500Y8460000I-82500J0D01*
G01*
X11147500Y8460000D02*
G75*
G02*
X11312500Y8460000I82500J0D01*
G01*
X3278495Y1283620D02*
X3136255Y1283620D01*
X3136255Y1141380D02*
G75*
G02*
X3136255Y1283620I0J71120D01*
G01*
X3136255Y1141380D02*
X3278495Y1141380D01*
X3278495Y1141380D02*
G75*
G03*
X3278495Y1283620I0J71120D01*
G01*
X3278495Y1537620D02*
X3136255Y1537620D01*
X3136255Y1395380D02*
G75*
G02*
X3136255Y1537620I0J71120D01*
G01*
X3136255Y1395380D02*
X3278495Y1395380D01*
X3278495Y1395380D02*
G75*
G03*
X3278495Y1537620I0J71120D01*
G01*
X3278495Y1791620D02*
X3136255Y1791620D01*
X3136255Y1649380D02*
G75*
G02*
X3136255Y1791620I0J71120D01*
G01*
X3136255Y1649380D02*
X3278495Y1649380D01*
X3278495Y1649380D02*
G75*
G03*
X3278495Y1791620I0J71120D01*
G01*
X3330000Y9715000D02*
G75*
G02*
X3030000Y9715000I-150000J0D01*
G01*
X3030000Y9715000D02*
G75*
G02*
X3330000Y9715000I150000J0D01*
G01*
X4953000Y9715000D02*
G75*
G02*
X4653000Y9715000I-150000J0D01*
G01*
X4653000Y9715000D02*
G75*
G02*
X4953000Y9715000I150000J0D01*
G01*
X3330000Y10350000D02*
G75*
G02*
X3030000Y10350000I-150000J0D01*
G01*
X3030000Y10350000D02*
G75*
G02*
X3330000Y10350000I150000J0D01*
G01*
X4953000Y10350000D02*
G75*
G02*
X4653000Y10350000I-150000J0D01*
G01*
X4653000Y10350000D02*
G75*
G02*
X4953000Y10350000I150000J0D01*
G01*
X3330000Y9080000D02*
G75*
G02*
X3030000Y9080000I-150000J0D01*
G01*
X3030000Y9080000D02*
G75*
G02*
X3330000Y9080000I150000J0D01*
G01*
X4953000Y9080000D02*
G75*
G02*
X4653000Y9080000I-150000J0D01*
G01*
X4653000Y9080000D02*
G75*
G02*
X4953000Y9080000I150000J0D01*
G01*
X19550000Y10600000D02*
G75*
G02*
X18850000Y10600000I-350000J0D01*
G01*
X18850000Y10600000D02*
G75*
G02*
X19550000Y10600000I350000J0D01*
G01*
X16440150Y4882500D02*
X16440150Y4717500D01*
X16275150Y4717500D01*
X16275150Y4882500D01*
X16440150Y4882500D01*
X16641823Y4882500D02*
X16690150Y4834173D01*
X16690150Y4765827D01*
X16641823Y4717500D01*
X16573477Y4717500D01*
X16525150Y4765827D01*
X16525150Y4834173D01*
X16573477Y4882500D01*
X16641823Y4882500D01*
X16891823Y4882500D02*
X16940150Y4834173D01*
X16940150Y4765827D01*
X16891823Y4717500D01*
X16823477Y4717500D01*
X16775150Y4765827D01*
X16775150Y4834173D01*
X16823477Y4882500D01*
X16891823Y4882500D01*
X16313450Y5655800D02*
X16313450Y5344200D01*
X16001850Y5344200D01*
X16001850Y5655800D01*
X16313450Y5655800D01*
X17213450Y5655800D02*
X17213450Y5344200D01*
X16901850Y5344200D01*
X16901850Y5655800D01*
X17213450Y5655800D01*
X19581250Y8820000D02*
G75*
G02*
X19378750Y8820000I-101250J0D01*
G01*
X19378750Y8820000D02*
G75*
G02*
X19581250Y8820000I101250J0D01*
G01*
X19581250Y9320000D02*
G75*
G02*
X19378750Y9320000I-101250J0D01*
G01*
X19378750Y9320000D02*
G75*
G02*
X19581250Y9320000I101250J0D01*
G01*
X19150300Y8320000D02*
G75*
G02*
X18809700Y8320000I-170300J0D01*
G01*
X18809700Y8320000D02*
G75*
G02*
X19150300Y8320000I170300J0D01*
G01*
X19150300Y9820000D02*
G75*
G02*
X18809700Y9820000I-170300J0D01*
G01*
X18809700Y9820000D02*
G75*
G02*
X19150300Y9820000I170300J0D01*
G01*
X18581250Y9820000D02*
G75*
G02*
X18378750Y9820000I-101250J0D01*
G01*
X18378750Y9820000D02*
G75*
G02*
X18581250Y9820000I101250J0D01*
G01*
X18581250Y9070000D02*
G75*
G02*
X18378750Y9070000I-101250J0D01*
G01*
X18378750Y9070000D02*
G75*
G02*
X18581250Y9070000I101250J0D01*
G01*
X18581250Y8320000D02*
G75*
G02*
X18378750Y8320000I-101250J0D01*
G01*
X18378750Y8320000D02*
G75*
G02*
X18581250Y8320000I101250J0D01*
G01*
X18332250Y9570000D02*
G75*
G02*
X18129750Y9570000I-101250J0D01*
G01*
X18129750Y9570000D02*
G75*
G02*
X18332250Y9570000I101250J0D01*
G01*
X18332250Y8570000D02*
G75*
G02*
X18129750Y8570000I-101250J0D01*
G01*
X18129750Y8570000D02*
G75*
G02*
X18332250Y8570000I101250J0D01*
G01*
X17800500Y6371000D02*
X17798597Y6361433D01*
X17793178Y6353322D01*
X17785067Y6347903D01*
X17775500Y6346000D01*
X17665500Y6346000D01*
X17655933Y6347903D01*
X17647822Y6353322D01*
X17642403Y6361433D01*
X17640500Y6371000D01*
X17640500Y6481000D01*
X17642403Y6490567D01*
X17647822Y6498678D01*
X17655933Y6504097D01*
X17665500Y6506000D01*
X17775500Y6506000D01*
X17785067Y6504097D01*
X17793178Y6498678D01*
X17798597Y6490567D01*
X17800500Y6481000D01*
X17800500Y6371000D01*
X17800500Y6680000D02*
G75*
G02*
X17640500Y6680000I-80000J0D01*
G01*
X17640500Y6680000D02*
G75*
G02*
X17800500Y6680000I80000J0D01*
G01*
X17800500Y6934000D02*
G75*
G02*
X17640500Y6934000I-80000J0D01*
G01*
X17640500Y6934000D02*
G75*
G02*
X17800500Y6934000I80000J0D01*
G01*
X17038500Y6934000D02*
G75*
G02*
X16878500Y6934000I-80000J0D01*
G01*
X16878500Y6934000D02*
G75*
G02*
X17038500Y6934000I80000J0D01*
G01*
X17038500Y6680000D02*
G75*
G02*
X16878500Y6680000I-80000J0D01*
G01*
X16878500Y6680000D02*
G75*
G02*
X17038500Y6680000I80000J0D01*
G01*
X17038500Y6426000D02*
G75*
G02*
X16878500Y6426000I-80000J0D01*
G01*
X16878500Y6426000D02*
G75*
G02*
X17038500Y6426000I80000J0D01*
G01*
X524440Y2330380D02*
G75*
G02*
X424440Y2330380I-50000J0D01*
G01*
X424440Y2330380D02*
G75*
G02*
X524440Y2330380I50000J0D01*
G01*
X524440Y1532820D02*
G75*
G02*
X424440Y1532820I-50000J0D01*
G01*
X424440Y1532820D02*
G75*
G02*
X524440Y1532820I50000J0D01*
G01*
X15268860Y2826060D02*
G75*
G02*
X15080900Y2826060I-93980J0D01*
G01*
X15080900Y2826060D02*
G75*
G02*
X15268860Y2826060I93980J0D01*
G01*
X15919100Y2826060D02*
G75*
G02*
X15731140Y2826060I-93980J0D01*
G01*
X15731140Y2826060D02*
G75*
G02*
X15919100Y2826060I93980J0D01*
G01*
X15268860Y2373940D02*
G75*
G02*
X15080900Y2373940I-93980J0D01*
G01*
X15080900Y2373940D02*
G75*
G02*
X15268860Y2373940I93980J0D01*
G01*
X15919100Y2373940D02*
G75*
G02*
X15731140Y2373940I-93980J0D01*
G01*
X15731140Y2373940D02*
G75*
G02*
X15919100Y2373940I93980J0D01*
G01*
X14040289Y2826060D02*
G75*
G02*
X13852329Y2826060I-93980J0D01*
G01*
X13852329Y2826060D02*
G75*
G02*
X14040289Y2826060I93980J0D01*
G01*
X14690529Y2826060D02*
G75*
G02*
X14502569Y2826060I-93980J0D01*
G01*
X14502569Y2826060D02*
G75*
G02*
X14690529Y2826060I93980J0D01*
G01*
X14040289Y2373940D02*
G75*
G02*
X13852329Y2373940I-93980J0D01*
G01*
X13852329Y2373940D02*
G75*
G02*
X14040289Y2373940I93980J0D01*
G01*
X14690529Y2373940D02*
G75*
G02*
X14502569Y2373940I-93980J0D01*
G01*
X14502569Y2373940D02*
G75*
G02*
X14690529Y2373940I93980J0D01*
G01*
X10354574Y2826060D02*
G75*
G02*
X10166614Y2826060I-93980J0D01*
G01*
X10166614Y2826060D02*
G75*
G02*
X10354574Y2826060I93980J0D01*
G01*
X11004814Y2826060D02*
G75*
G02*
X10816854Y2826060I-93980J0D01*
G01*
X10816854Y2826060D02*
G75*
G02*
X11004814Y2826060I93980J0D01*
G01*
X10354574Y2373940D02*
G75*
G02*
X10166614Y2373940I-93980J0D01*
G01*
X10166614Y2373940D02*
G75*
G02*
X10354574Y2373940I93980J0D01*
G01*
X11004814Y2373940D02*
G75*
G02*
X10816854Y2373940I-93980J0D01*
G01*
X10816854Y2373940D02*
G75*
G02*
X11004814Y2373940I93980J0D01*
G01*
X15268860Y1226060D02*
G75*
G02*
X15080900Y1226060I-93980J0D01*
G01*
X15080900Y1226060D02*
G75*
G02*
X15268860Y1226060I93980J0D01*
G01*
X15919100Y1226060D02*
G75*
G02*
X15731140Y1226060I-93980J0D01*
G01*
X15731140Y1226060D02*
G75*
G02*
X15919100Y1226060I93980J0D01*
G01*
X15268860Y773940D02*
G75*
G02*
X15080900Y773940I-93980J0D01*
G01*
X15080900Y773940D02*
G75*
G02*
X15268860Y773940I93980J0D01*
G01*
X15919100Y773940D02*
G75*
G02*
X15731140Y773940I-93980J0D01*
G01*
X15731140Y773940D02*
G75*
G02*
X15919100Y773940I93980J0D01*
G01*
X7272750Y4882500D02*
X7272750Y4717500D01*
X7107750Y4717500D01*
X7107750Y4882500D01*
X7272750Y4882500D01*
X7474423Y4882500D02*
X7522750Y4834173D01*
X7522750Y4765827D01*
X7474423Y4717500D01*
X7406077Y4717500D01*
X7357750Y4765827D01*
X7357750Y4834173D01*
X7406077Y4882500D01*
X7474423Y4882500D01*
X7724423Y4882500D02*
X7772750Y4834173D01*
X7772750Y4765827D01*
X7724423Y4717500D01*
X7656077Y4717500D01*
X7607750Y4765827D01*
X7607750Y4834173D01*
X7656077Y4882500D01*
X7724423Y4882500D01*
X7146050Y5655800D02*
X7146050Y5344200D01*
X6834450Y5344200D01*
X6834450Y5655800D01*
X7146050Y5655800D01*
X8046050Y5655800D02*
X8046050Y5344200D01*
X7734450Y5344200D01*
X7734450Y5655800D01*
X8046050Y5655800D01*
X9126003Y1226060D02*
G75*
G02*
X8938043Y1226060I-93980J0D01*
G01*
X8938043Y1226060D02*
G75*
G02*
X9126003Y1226060I93980J0D01*
G01*
X9776243Y1226060D02*
G75*
G02*
X9588283Y1226060I-93980J0D01*
G01*
X9588283Y1226060D02*
G75*
G02*
X9776243Y1226060I93980J0D01*
G01*
X9126003Y773940D02*
G75*
G02*
X8938043Y773940I-93980J0D01*
G01*
X8938043Y773940D02*
G75*
G02*
X9126003Y773940I93980J0D01*
G01*
X9776243Y773940D02*
G75*
G02*
X9588283Y773940I-93980J0D01*
G01*
X9588283Y773940D02*
G75*
G02*
X9776243Y773940I93980J0D01*
G01*
X5578500Y9711500D02*
G75*
G02*
X5278500Y9711500I-150000J0D01*
G01*
X5278500Y9711500D02*
G75*
G02*
X5578500Y9711500I150000J0D01*
G01*
X7201500Y9711500D02*
G75*
G02*
X6901500Y9711500I-150000J0D01*
G01*
X6901500Y9711500D02*
G75*
G02*
X7201500Y9711500I150000J0D01*
G01*
X5578500Y10346500D02*
G75*
G02*
X5278500Y10346500I-150000J0D01*
G01*
X5278500Y10346500D02*
G75*
G02*
X5578500Y10346500I150000J0D01*
G01*
X7201500Y10346500D02*
G75*
G02*
X6901500Y10346500I-150000J0D01*
G01*
X6901500Y10346500D02*
G75*
G02*
X7201500Y10346500I150000J0D01*
G01*
X5578500Y9076500D02*
G75*
G02*
X5278500Y9076500I-150000J0D01*
G01*
X5278500Y9076500D02*
G75*
G02*
X5578500Y9076500I150000J0D01*
G01*
X7201500Y9076500D02*
G75*
G02*
X6901500Y9076500I-150000J0D01*
G01*
X6901500Y9076500D02*
G75*
G02*
X7201500Y9076500I150000J0D01*
G01*
X19550000Y500000D02*
G75*
G02*
X18850000Y500000I-350000J0D01*
G01*
X18850000Y500000D02*
G75*
G02*
X19550000Y500000I350000J0D01*
G01*
X11583146Y1226060D02*
G75*
G02*
X11395186Y1226060I-93980J0D01*
G01*
X11395186Y1226060D02*
G75*
G02*
X11583146Y1226060I93980J0D01*
G01*
X12233386Y1226060D02*
G75*
G02*
X12045426Y1226060I-93980J0D01*
G01*
X12045426Y1226060D02*
G75*
G02*
X12233386Y1226060I93980J0D01*
G01*
X11583146Y773940D02*
G75*
G02*
X11395186Y773940I-93980J0D01*
G01*
X11395186Y773940D02*
G75*
G02*
X11583146Y773940I93980J0D01*
G01*
X12233386Y773940D02*
G75*
G02*
X12045426Y773940I-93980J0D01*
G01*
X12045426Y773940D02*
G75*
G02*
X12233386Y773940I93980J0D01*
G01*
X15618500Y9711500D02*
G75*
G02*
X15318500Y9711500I-150000J0D01*
G01*
X15318500Y9711500D02*
G75*
G02*
X15618500Y9711500I150000J0D01*
G01*
X17241500Y9711500D02*
G75*
G02*
X16941500Y9711500I-150000J0D01*
G01*
X16941500Y9711500D02*
G75*
G02*
X17241500Y9711500I150000J0D01*
G01*
X15618500Y10346500D02*
G75*
G02*
X15318500Y10346500I-150000J0D01*
G01*
X15318500Y10346500D02*
G75*
G02*
X15618500Y10346500I150000J0D01*
G01*
X17241500Y10346500D02*
G75*
G02*
X16941500Y10346500I-150000J0D01*
G01*
X16941500Y10346500D02*
G75*
G02*
X17241500Y10346500I150000J0D01*
G01*
X15618500Y9076500D02*
G75*
G02*
X15318500Y9076500I-150000J0D01*
G01*
X15318500Y9076500D02*
G75*
G02*
X15618500Y9076500I150000J0D01*
G01*
X17241500Y9076500D02*
G75*
G02*
X16941500Y9076500I-150000J0D01*
G01*
X16941500Y9076500D02*
G75*
G02*
X17241500Y9076500I150000J0D01*
G01*
X12811717Y2826060D02*
G75*
G02*
X12623757Y2826060I-93980J0D01*
G01*
X12623757Y2826060D02*
G75*
G02*
X12811717Y2826060I93980J0D01*
G01*
X13461957Y2826060D02*
G75*
G02*
X13273997Y2826060I-93980J0D01*
G01*
X13273997Y2826060D02*
G75*
G02*
X13461957Y2826060I93980J0D01*
G01*
X12811717Y2373940D02*
G75*
G02*
X12623757Y2373940I-93980J0D01*
G01*
X12623757Y2373940D02*
G75*
G02*
X12811717Y2373940I93980J0D01*
G01*
X13461957Y2373940D02*
G75*
G02*
X13273997Y2373940I-93980J0D01*
G01*
X13273997Y2373940D02*
G75*
G02*
X13461957Y2373940I93980J0D01*
G01*
M02*
