M48
; DRILL file KiCad 10.0.1 date 2026-06-17T15:13:18
; FORMAT={-:-/ absolute / metric / decimal}
; #@! TF.CreationDate,2026-06-17T15:13:18-07:00
; #@! TF.GenerationSoftware,Kicad,Pcbnew,10.0.1
; #@! TF.FileFunction,MixedPlating,1,2
FMAT,2
METRIC
; #@! TA.AperFunction,Plated,PTH,ViaDrill
T1C0.300
; #@! TA.AperFunction,Plated,PTH,ViaDrill
T2C0.350
; #@! TA.AperFunction,Plated,PTH,ComponentDrill
T3C0.800
; #@! TA.AperFunction,Plated,PTH,ComponentDrill
T4C1.016
; #@! TA.AperFunction,Plated,PTH,ComponentDrill
T5C1.100
; #@! TA.AperFunction,Plated,PTH,ComponentDrill
T6C1.350
; #@! TA.AperFunction,Plated,PTH,ComponentDrill
T7C1.400
; #@! TA.AperFunction,Plated,PTH,ComponentDrill
T8C2.100
; #@! TA.AperFunction,Plated,PTH,ComponentDrill
T9C2.390
; #@! TA.AperFunction,Plated,PTH,ComponentDrill
T10C3.500
; #@! TA.AperFunction,NonPlated,NPTH,ComponentDrill
T11C0.650
; #@! TA.AperFunction,NonPlated,NPTH,ComponentDrill
T12C1.000
; #@! TA.AperFunction,NonPlated,NPTH,ComponentDrill
T13C1.700
%
G90
G05
T1
X2.75Y83.25
X3.3Y13.2
X3.5Y56.5
X3.5Y55.25
X3.5Y54.0
X6.0Y87.0
X6.6Y34.0
X7.2Y25.8
X8.42Y72.155
X8.42Y67.51
X8.5Y22.5
X9.372Y70.885
X10.289Y69.261
X12.0Y90.5
X12.0Y89.75
X12.0Y80.75
X12.6Y17.2
X12.8Y27.0
X16.336Y70.256
X16.8Y68.4
X17.0Y18.5
X17.5Y60.8
X17.6Y69.0
X17.7Y62.6
X17.8Y57.7
X21.4Y34.0
X22.8Y4.2
X23.8Y23.2
X24.8Y12.4
X25.75Y88.25
X25.75Y86.5
X25.75Y84.75
X25.75Y80.25
X25.75Y78.5
X25.75Y76.75
X27.4Y17.2
X29.0Y34.0
X29.0Y19.0
X29.6Y25.2
X32.2Y80.8
X34.75Y77.0
X36.0Y12.2
X36.5Y77.0
X38.25Y77.0
X43.0Y85.25
X43.0Y72.5
X44.6Y58.0
X45.4Y93.1
X46.1Y92.5
X47.8Y1.8
X48.6Y2.4
X48.8Y67.9
X48.8Y64.4
X49.2Y3.425
X49.6Y15.2
X50.0Y23.175
X50.6Y11.4
X51.0Y24.445
X51.4Y12.6
X54.0Y31.4
X55.0Y88.25
X55.2Y21.6
X55.4Y6.2
X56.5Y77.5
X56.8Y30.5
X57.3Y25.6
X60.0Y60.8
X60.3Y15.0
X60.7Y27.2
X61.4Y25.4
X61.4Y14.2
X61.6Y82.4
X61.6Y9.4
X62.2Y2.6
X63.0Y12.0
X63.7Y68.9
X63.9Y40.8
X64.0Y17.2
X64.6Y59.0
X64.8Y77.6
X64.9Y69.9
X69.2Y66.5
X71.4Y66.5
X72.1Y33.0
X73.8Y14.7
X74.2Y27.0
X74.8Y3.4
X75.4Y12.0
X75.9Y41.3
X76.2Y17.1
X77.0Y62.0
X80.6Y46.5
X81.2Y62.8
X84.0Y71.3
X84.1Y63.7
X84.5Y32.9
X86.8Y15.3
X87.2Y3.921
X87.3Y28.1
X87.6Y12.0
X88.0Y42.0
X88.2Y53.1
X88.3Y17.1
X88.8Y79.0
X89.4Y61.6
X89.8Y77.25
X90.4Y52.7
X90.5Y85.9
X94.3Y73.6
X96.6Y32.9
X97.1Y46.5
X97.6Y80.6
X98.3Y52.1
X98.7Y4.3
X98.8Y72.0
X99.1Y15.7
X99.5Y12.0
X99.7Y28.2
X100.2Y82.2
X100.5Y79.0
X100.9Y42.4
X101.1Y17.1
X101.2Y87.0
X101.6Y101.1
X102.5Y77.2
X102.5Y72.5
X102.8Y51.5
X103.7Y85.3
X104.6Y64.6
X105.5Y75.7
X107.9Y33.0
X109.1Y70.5
X111.0Y19.1
X111.4Y4.8
X111.6Y28.1
X111.9Y11.9
X112.5Y42.8
X112.5Y17.3
X119.0Y68.4
X120.1Y33.0
X123.0Y5.3
X123.5Y19.7
X124.1Y28.0
X124.2Y11.9
X124.7Y78.3
X124.7Y43.2
X124.9Y17.2
X125.7Y79.0
X128.2Y69.1
X128.2Y50.6
X130.9Y14.4
X131.0Y68.7
X131.8Y62.9
X132.7Y33.0
X134.2Y69.7
X134.6Y65.2
X135.5Y20.1
X135.9Y5.9
X136.4Y28.3
X136.5Y12.0
X137.6Y43.5
X137.6Y17.3
X140.9Y73.2
X142.75Y87.0
X145.0Y32.9
X147.9Y6.6
X148.1Y11.8
X148.2Y21.2
X148.4Y28.1
X149.0Y85.0
X149.7Y43.7
X149.8Y17.0
X150.0Y70.5
X150.0Y66.4
X156.9Y33.0
X159.0Y71.2
X160.4Y66.3
X160.4Y30.7
X161.3Y31.7
X161.8Y25.6
X162.0Y32.5
X163.5Y65.6
X163.8Y43.8
X165.8Y29.6
X166.3Y82.2
X167.6Y63.8
X168.2Y74.2
X168.6Y29.6
X173.6Y44.0
X177.6Y38.6
X178.0Y35.6
X179.8Y93.2
X179.8Y74.4
T2
X40.4Y63.5
X41.503Y65.7
T3
X169.585Y69.34
X169.585Y66.8
X169.585Y64.26
X177.205Y69.34
X177.205Y66.8
X177.205Y64.26
T4
X65.749Y28.261
X65.749Y23.739
X65.749Y12.261
X65.749Y7.739
X72.251Y28.261
X72.251Y23.739
X72.251Y12.261
X72.251Y7.739
X78.035Y28.261
X78.035Y23.739
X78.035Y12.261
X78.035Y7.739
X84.537Y28.261
X84.537Y23.739
X84.537Y12.261
X84.537Y7.739
X90.32Y28.261
X90.32Y23.739
X90.32Y12.261
X90.32Y7.739
X96.823Y28.261
X96.823Y23.739
X96.823Y12.261
X96.823Y7.739
X102.606Y28.261
X102.606Y23.739
X102.606Y12.261
X102.606Y7.739
X109.108Y28.261
X109.108Y23.739
X109.108Y12.261
X109.108Y7.739
X114.892Y28.261
X114.892Y23.739
X114.892Y12.261
X114.892Y7.739
X121.394Y28.261
X121.394Y23.739
X121.394Y12.261
X121.394Y7.739
X127.177Y28.261
X127.177Y23.739
X127.177Y12.261
X127.177Y7.739
X133.68Y28.261
X133.68Y23.739
X133.68Y12.261
X133.68Y7.739
X139.463Y28.261
X139.463Y23.739
X139.463Y12.261
X139.463Y7.739
X145.965Y28.261
X145.965Y23.739
X145.965Y12.261
X145.965Y7.739
X151.749Y28.261
X151.749Y23.739
X151.749Y12.261
X151.749Y7.739
X158.251Y28.261
X158.251Y23.739
X158.251Y12.261
X158.251Y7.739
T5
X2.795Y44.945
X2.795Y29.705
X5.335Y44.945
X5.335Y29.705
X7.875Y44.945
X7.875Y29.705
X10.415Y44.945
X10.415Y29.705
X12.955Y44.945
X12.955Y29.705
X15.495Y44.945
X15.495Y29.705
X18.035Y44.945
X18.035Y29.705
X20.575Y44.945
X20.575Y29.705
X23.115Y44.945
X23.115Y29.705
X25.655Y44.945
X25.655Y29.705
X28.195Y44.945
X28.195Y29.705
X30.735Y44.945
X30.735Y29.705
X32.074Y17.205
X32.074Y14.665
X32.074Y12.125
X33.275Y44.945
X33.275Y29.705
X35.815Y44.945
X35.815Y29.705
X38.355Y44.945
X38.355Y29.705
X40.895Y44.945
X40.895Y29.705
X43.435Y44.945
X43.435Y29.705
X45.567Y17.205
X45.567Y14.665
X45.567Y12.125
X45.975Y44.945
X45.975Y29.705
X48.515Y44.945
X48.515Y29.705
X51.055Y44.945
X51.055Y29.705
X56.623Y48.0
X59.123Y48.0
X61.623Y48.0
X71.903Y48.0
X74.403Y48.0
X76.903Y48.0
X82.0Y100.2
X82.0Y91.7
X82.0Y88.7
X82.0Y84.6
X82.0Y76.1
X82.0Y73.1
X87.181Y48.0
X89.681Y48.0
X92.181Y48.0
X102.46Y48.0
X104.96Y48.0
X107.46Y48.0
X112.3Y100.2
X112.3Y91.7
X112.3Y88.7
X112.3Y84.6
X112.3Y76.1
X112.3Y73.1
X117.739Y48.0
X120.239Y48.0
X122.4Y100.2
X122.4Y91.7
X122.4Y88.7
X122.4Y84.6
X122.4Y76.1
X122.4Y73.1
X122.739Y48.0
X133.018Y48.0
X135.518Y48.0
X138.018Y48.0
X148.297Y48.0
X150.797Y48.0
X153.297Y48.0
X163.576Y48.0
X166.076Y48.0
X168.576Y48.0
T6
X182.31Y95.7
X182.31Y85.7
X182.31Y71.7
X182.31Y61.7
X182.31Y47.7
X182.31Y37.7
X184.8Y98.2
X184.8Y90.7
X184.8Y83.2
X184.8Y74.2
X184.8Y66.7
X184.8Y59.2
X184.8Y50.2
X184.8Y42.7
X184.8Y35.2
X194.8Y93.2
X194.8Y88.2
X194.8Y69.2
X194.8Y64.2
X194.8Y45.2
X194.8Y40.2
T7
X31.8Y103.5
X31.8Y97.15
X31.8Y90.8
X48.03Y103.5
X48.03Y97.15
X48.03Y90.8
X54.285Y103.465
X54.285Y97.115
X54.285Y90.765
X70.515Y103.465
X70.515Y97.115
X70.515Y90.765
X132.285Y103.465
X132.285Y97.115
X132.285Y90.765
X148.515Y103.465
X148.515Y97.115
X148.515Y90.765
X154.685Y103.465
X154.685Y97.115
X154.685Y90.765
X170.915Y103.465
X170.915Y97.115
X170.915Y90.765
T8
X54.623Y55.0
X63.623Y55.0
X69.903Y55.0
X78.903Y55.0
X85.181Y55.0
X94.181Y55.0
X100.46Y55.0
X109.46Y55.0
X115.739Y55.0
X124.739Y55.0
X131.018Y55.0
X140.018Y55.0
X146.297Y55.0
X155.297Y55.0
X161.576Y55.0
X170.576Y55.0
T9
X189.8Y98.2
X189.8Y83.2
X189.8Y74.2
X189.8Y59.2
X189.8Y50.2
X189.8Y35.2
T10
X5.0Y106.0
X5.0Y5.0
X192.0Y106.0
X192.0Y5.0
T11
X6.0Y72.8
X6.0Y67.02
T12
X4.744Y23.304
X4.744Y15.328
T13
X173.6Y13.3
X173.6Y6.3
M30
