%TF.GenerationSoftware,KiCad,Pcbnew,9.0.2*%
%TF.CreationDate,2025-08-08T14:00:36-07:00*%
%TF.ProjectId,ES-Seed3-DevKit-Desktop-Rev1,45532d53-6565-4643-932d-4465764b6974,rev?*%
%TF.SameCoordinates,Original*%
%TF.FileFunction,Soldermask,Bot*%
%TF.FilePolarity,Negative*%
%FSLAX45Y45*%
G04 Gerber Fmt 4.5, Leading zero omitted, Abs format (unit mm)*
G04 Created by KiCad (PCBNEW 9.0.2) date 2025-08-08 14:00:36*
%MOMM*%
%LPD*%
G01*
G04 APERTURE LIST*
G04 Aperture macros list*
%AMRoundRect*
0 Rectangle with rounded corners*
0 $1 Rounding radius*
0 $2 $3 $4 $5 $6 $7 $8 $9 X,Y pos of 4 corners*
0 Add a 4 corners polygon primitive as box body*
4,1,4,$2,$3,$4,$5,$6,$7,$8,$9,$2,$3,0*
0 Add four circle primitives for the rounded corners*
1,1,$1+$1,$2,$3*
1,1,$1+$1,$4,$5*
1,1,$1+$1,$6,$7*
1,1,$1+$1,$8,$9*
0 Add four rect primitives between the rounded corners*
20,1,$1+$1,$2,$3,$4,$5,0*
20,1,$1+$1,$4,$5,$6,$7,0*
20,1,$1+$1,$6,$7,$8,$9,0*
20,1,$1+$1,$8,$9,$2,$3,0*%
%AMFreePoly0*
4,1,25,0.401445,0.907196,0.413568,0.896842,0.896842,0.413568,0.925349,0.357620,0.926600,0.341726,0.926600,-0.341726,0.907196,-0.401445,0.896842,-0.413568,0.413568,-0.896842,0.357620,-0.925349,0.341726,-0.926600,-0.341726,-0.926600,-0.401445,-0.907196,-0.413568,-0.896842,-0.896842,-0.413568,-0.925349,-0.357620,-0.926600,-0.341726,-0.926600,0.341726,-0.907196,0.401445,-0.896842,0.413568,
-0.413568,0.896842,-0.357620,0.925349,-0.341726,0.926600,0.341726,0.926600,0.401445,0.907196,0.401445,0.907196,$1*%
G04 Aperture macros list end*
%ADD10C,2.228200*%
%ADD11C,3.609200*%
%ADD12C,7.000000*%
%ADD13RoundRect,0.101600X-0.825000X0.825000X-0.825000X-0.825000X0.825000X-0.825000X0.825000X0.825000X0*%
%ADD14FreePoly0,270.000000*%
%ADD15RoundRect,0.101600X-1.558000X1.558000X-1.558000X-1.558000X1.558000X-1.558000X1.558000X1.558000X0*%
%ADD16C,1.853200*%
%ADD17O,3.048000X1.625600*%
%ADD18C,2.082800*%
%ADD19R,1.700000X1.700000*%
%ADD20C,1.700000*%
%ADD21C,3.000000*%
%ADD22C,0.650000*%
%ADD23RoundRect,0.250000X0.550000X0.550000X-0.550000X0.550000X-0.550000X-0.550000X0.550000X-0.550000X0*%
%ADD24C,1.600000*%
%ADD25C,0.999997*%
G04 APERTURE END LIST*
D10*
%TO.C,J10*%
X19480000Y4020000D03*
X19480000Y4520000D03*
D11*
X18980000Y3520000D03*
X18980000Y5020000D03*
D10*
X18480000Y5020000D03*
X18480000Y4270000D03*
X18480000Y3520000D03*
X18231000Y4770000D03*
X18231000Y3770000D03*
%TD*%
%TO.C,J8*%
X19480000Y6420000D03*
X19480000Y6920000D03*
D11*
X18980000Y5920000D03*
X18980000Y7420000D03*
D10*
X18480000Y7420000D03*
X18480000Y6670000D03*
X18480000Y5920000D03*
X18231000Y7170000D03*
X18231000Y6170000D03*
%TD*%
D12*
%TO.C,H1*%
X500000Y10600000D03*
%TD*%
D13*
%TO.C,VR7*%
X14829750Y4800000D03*
D14*
X15079750Y4800000D03*
X15329750Y4800000D03*
D15*
X14629750Y5500000D03*
X15529750Y5500000D03*
%TD*%
D16*
%TO.C,J_GATE_IN2*%
X12240000Y7310000D03*
X12240000Y7610000D03*
X12240000Y8460000D03*
%TD*%
D13*
%TO.C,VR3*%
X8718150Y4800000D03*
D14*
X8968150Y4800000D03*
X9218150Y4800000D03*
D15*
X8518150Y5500000D03*
X9418150Y5500000D03*
%TD*%
D13*
%TO.C,VR5*%
X11773950Y4800000D03*
D14*
X12023950Y4800000D03*
X12273950Y4800000D03*
D15*
X11573950Y5500000D03*
X12473950Y5500000D03*
%TD*%
D17*
%TO.C,SW17*%
X4556750Y1212500D03*
X4556750Y1466500D03*
X4556750Y1720500D03*
%TD*%
D18*
%TO.C,S1*%
X6574880Y2826060D03*
X7225120Y2826060D03*
X6574880Y2373940D03*
X7225120Y2373940D03*
%TD*%
D13*
%TO.C,VR1*%
X5662350Y4800000D03*
D14*
X5912350Y4800000D03*
X6162350Y4800000D03*
D15*
X5462350Y5500000D03*
X6362350Y5500000D03*
%TD*%
D18*
%TO.C,S12*%
X10260594Y1226060D03*
X10910834Y1226060D03*
X10260594Y773940D03*
X10910834Y773940D03*
%TD*%
%TO.C,S9*%
X6574880Y1226060D03*
X7225120Y1226060D03*
X6574880Y773940D03*
X7225120Y773940D03*
%TD*%
D16*
%TO.C,J_CV_OUT_1*%
X8200000Y8870000D03*
X8200000Y9170000D03*
X8200000Y10020000D03*
%TD*%
D18*
%TO.C,S5*%
X11489166Y2826060D03*
X12139406Y2826060D03*
X11489166Y2373940D03*
X12139406Y2373940D03*
%TD*%
D16*
%TO.C,J_GATE_IN1*%
X12240000Y8870000D03*
X12240000Y9170000D03*
X12240000Y10020000D03*
%TD*%
D19*
%TO.C,A1*%
X279500Y2970500D03*
D20*
X533500Y2970500D03*
X787500Y2970500D03*
X1041500Y2970500D03*
X1295500Y2970500D03*
X1549500Y2970500D03*
X1803500Y2970500D03*
X2057500Y2970500D03*
X2311500Y2970500D03*
X2565500Y2970500D03*
X2819500Y2970500D03*
X3073500Y2970500D03*
X3327500Y2970500D03*
X3581500Y2970500D03*
X3835500Y2970500D03*
X4089500Y2970500D03*
X4343500Y2970500D03*
X4597500Y2970500D03*
X4851500Y2970500D03*
X5105500Y2970500D03*
X5105500Y4494500D03*
X4851500Y4494500D03*
X4597500Y4494500D03*
X4343500Y4494500D03*
X4089500Y4494500D03*
X3835500Y4494500D03*
X3581500Y4494500D03*
X3327500Y4494500D03*
X3073500Y4494500D03*
X2819500Y4494500D03*
X2565500Y4494500D03*
X2311500Y4494500D03*
X2057500Y4494500D03*
X1803500Y4494500D03*
X1549500Y4494500D03*
X1295500Y4494500D03*
X1041500Y4494500D03*
X787500Y4494500D03*
X533500Y4494500D03*
X279500Y4494500D03*
%TD*%
D16*
%TO.C,J_CV_OUT_2*%
X8200000Y7310000D03*
X8200000Y7610000D03*
X8200000Y8460000D03*
%TD*%
D13*
%TO.C,VR4*%
X10246050Y4800000D03*
D14*
X10496050Y4800000D03*
X10746050Y4800000D03*
D15*
X10046050Y5500000D03*
X10946050Y5500000D03*
%TD*%
D18*
%TO.C,S3*%
X9032023Y2826060D03*
X9682263Y2826060D03*
X9032023Y2373940D03*
X9682263Y2373940D03*
%TD*%
%TO.C,S15*%
X13946309Y1226060D03*
X14596549Y1226060D03*
X13946309Y773940D03*
X14596549Y773940D03*
%TD*%
D16*
%TO.C,J_CV_IN_1*%
X11230000Y8870000D03*
X11230000Y9170000D03*
X11230000Y10020000D03*
%TD*%
D20*
%TO.C,J5*%
X17360000Y630000D03*
X17360000Y1330000D03*
%TD*%
D21*
%TO.C,J2*%
X13228500Y9711500D03*
X14851500Y9711500D03*
X13228500Y10346500D03*
X14851500Y10346500D03*
X13228500Y9076500D03*
X14851500Y9076500D03*
%TD*%
D18*
%TO.C,S2*%
X7803451Y2826060D03*
X8453691Y2826060D03*
X7803451Y2373940D03*
X8453691Y2373940D03*
%TD*%
%TO.C,S14*%
X12717737Y1226060D03*
X13367977Y1226060D03*
X12717737Y773940D03*
X13367977Y773940D03*
%TD*%
D22*
%TO.C,J7*%
X600000Y7280000D03*
X600000Y6702000D03*
%TD*%
D12*
%TO.C,H2*%
X500000Y500000D03*
%TD*%
D18*
%TO.C,S10*%
X7803451Y1226060D03*
X8453691Y1226060D03*
X7803451Y773940D03*
X8453691Y773940D03*
%TD*%
D13*
%TO.C,VR6*%
X13301850Y4800000D03*
D14*
X13551850Y4800000D03*
X13801850Y4800000D03*
D15*
X13101850Y5500000D03*
X14001850Y5500000D03*
%TD*%
D16*
%TO.C,J_CV_IN_2*%
X11230000Y7310000D03*
X11230000Y7610000D03*
X11230000Y8460000D03*
%TD*%
D17*
%TO.C,SW18*%
X3207375Y1212500D03*
X3207375Y1466500D03*
X3207375Y1720500D03*
%TD*%
D21*
%TO.C,J4*%
X3180000Y9715000D03*
X4803000Y9715000D03*
X3180000Y10350000D03*
X4803000Y10350000D03*
X3180000Y9080000D03*
X4803000Y9080000D03*
%TD*%
D12*
%TO.C,H3*%
X19200000Y10600000D03*
%TD*%
D13*
%TO.C,VR8*%
X16357650Y4800000D03*
D14*
X16607650Y4800000D03*
X16857650Y4800000D03*
D15*
X16157650Y5500000D03*
X17057650Y5500000D03*
%TD*%
D10*
%TO.C,J11*%
X19480000Y8820000D03*
X19480000Y9320000D03*
D11*
X18980000Y8320000D03*
X18980000Y9820000D03*
D10*
X18480000Y9820000D03*
X18480000Y9070000D03*
X18480000Y8320000D03*
X18231000Y9570000D03*
X18231000Y8570000D03*
%TD*%
D23*
%TO.C,U11*%
X17720500Y6426000D03*
D24*
X17720500Y6680000D03*
X17720500Y6934000D03*
X16958500Y6934000D03*
X16958500Y6680000D03*
X16958500Y6426000D03*
%TD*%
D25*
%TO.C,MICRO_SD7*%
X474440Y2330380D03*
X474440Y1532820D03*
%TD*%
D18*
%TO.C,S8*%
X15174880Y2826060D03*
X15825120Y2826060D03*
X15174880Y2373940D03*
X15825120Y2373940D03*
%TD*%
%TO.C,S7*%
X13946309Y2826060D03*
X14596549Y2826060D03*
X13946309Y2373940D03*
X14596549Y2373940D03*
%TD*%
%TO.C,S4*%
X10260594Y2826060D03*
X10910834Y2826060D03*
X10260594Y2373940D03*
X10910834Y2373940D03*
%TD*%
%TO.C,S16*%
X15174880Y1226060D03*
X15825120Y1226060D03*
X15174880Y773940D03*
X15825120Y773940D03*
%TD*%
D13*
%TO.C,VR2*%
X7190250Y4800000D03*
D14*
X7440250Y4800000D03*
X7690250Y4800000D03*
D15*
X6990250Y5500000D03*
X7890250Y5500000D03*
%TD*%
D18*
%TO.C,S11*%
X9032023Y1226060D03*
X9682263Y1226060D03*
X9032023Y773940D03*
X9682263Y773940D03*
%TD*%
D21*
%TO.C,J3*%
X5428500Y9711500D03*
X7051500Y9711500D03*
X5428500Y10346500D03*
X7051500Y10346500D03*
X5428500Y9076500D03*
X7051500Y9076500D03*
%TD*%
D12*
%TO.C,H4*%
X19200000Y500000D03*
%TD*%
D18*
%TO.C,S13*%
X11489166Y1226060D03*
X12139406Y1226060D03*
X11489166Y773940D03*
X12139406Y773940D03*
%TD*%
D21*
%TO.C,J1*%
X15468500Y9711500D03*
X17091500Y9711500D03*
X15468500Y10346500D03*
X17091500Y10346500D03*
X15468500Y9076500D03*
X17091500Y9076500D03*
%TD*%
D18*
%TO.C,S6*%
X12717737Y2826060D03*
X13367977Y2826060D03*
X12717737Y2373940D03*
X13367977Y2373940D03*
%TD*%
M02*
