%TF.GenerationSoftware,KiCad,Pcbnew,9.0.2*%
%TF.CreationDate,2025-08-08T13:32:16-07:00*%
%TF.ProjectId,ES-Seed3-DevKit-Desktop-Rev1,45532d53-6565-4643-932d-4465764b6974,rev?*%
%TF.SameCoordinates,Original*%
%TF.FileFunction,Paste,Top*%
%TF.FilePolarity,Positive*%
%FSLAX45Y45*%
G04 Gerber Fmt 4.5, Leading zero omitted, Abs format (unit mm)*
G04 Created by KiCad (PCBNEW 9.0.2) date 2025-08-08 13:32:16*
%MOMM*%
%LPD*%
G01*
G04 APERTURE LIST*
G04 Aperture macros list*
%AMRoundRect*
0 Rectangle with rounded corners*
0 $1 Rounding radius*
0 $2 $3 $4 $5 $6 $7 $8 $9 X,Y pos of 4 corners*
0 Add a 4 corners polygon primitive as box body*
4,1,4,$2,$3,$4,$5,$6,$7,$8,$9,$2,$3,0*
0 Add four circle primitives for the rounded corners*
1,1,$1+$1,$2,$3*
1,1,$1+$1,$4,$5*
1,1,$1+$1,$6,$7*
1,1,$1+$1,$8,$9*
0 Add four rect primitives between the rounded corners*
20,1,$1+$1,$2,$3,$4,$5,0*
20,1,$1+$1,$4,$5,$6,$7,0*
20,1,$1+$1,$6,$7,$8,$9,0*
20,1,$1+$1,$8,$9,$2,$3,0*%
G04 Aperture macros list end*
%ADD10RoundRect,0.200000X-0.275000X0.200000X-0.275000X-0.200000X0.275000X-0.200000X0.275000X0.200000X0*%
%ADD11RoundRect,0.200000X-0.200000X-0.275000X0.200000X-0.275000X0.200000X0.275000X-0.200000X0.275000X0*%
%ADD12RoundRect,0.225000X0.250000X-0.225000X0.250000X0.225000X-0.250000X0.225000X-0.250000X-0.225000X0*%
%ADD13RoundRect,0.150000X-0.150000X0.825000X-0.150000X-0.825000X0.150000X-0.825000X0.150000X0.825000X0*%
%ADD14RoundRect,0.150000X0.825000X0.150000X-0.825000X0.150000X-0.825000X-0.150000X0.825000X-0.150000X0*%
%ADD15RoundRect,0.225000X-0.225000X-0.250000X0.225000X-0.250000X0.225000X0.250000X-0.225000X0.250000X0*%
%ADD16RoundRect,0.200000X0.275000X-0.200000X0.275000X0.200000X-0.275000X0.200000X-0.275000X-0.200000X0*%
%ADD17RoundRect,0.180000X-0.520000X0.420000X-0.520000X-0.420000X0.520000X-0.420000X0.520000X0.420000X0*%
%ADD18RoundRect,0.210000X-0.490000X0.890000X-0.490000X-0.890000X0.490000X-0.890000X0.490000X0.890000X0*%
%ADD19RoundRect,0.250000X0.550000X-1.050000X0.550000X1.050000X-0.550000X1.050000X-0.550000X-1.050000X0*%
%ADD20RoundRect,0.200000X0.200000X0.275000X-0.200000X0.275000X-0.200000X-0.275000X0.200000X-0.275000X0*%
%ADD21RoundRect,0.218750X0.218750X0.256250X-0.218750X0.256250X-0.218750X-0.256250X0.218750X-0.256250X0*%
%ADD22RoundRect,0.125000X-0.125000X-0.125000X0.125000X-0.125000X0.125000X0.125000X-0.125000X0.125000X0*%
%ADD23RoundRect,0.250000X1.500000X0.550000X-1.500000X0.550000X-1.500000X-0.550000X1.500000X-0.550000X0*%
%ADD24RoundRect,0.250000X-0.475000X0.250000X-0.475000X-0.250000X0.475000X-0.250000X0.475000X0.250000X0*%
%ADD25RoundRect,0.150000X-0.825000X-0.150000X0.825000X-0.150000X0.825000X0.150000X-0.825000X0.150000X0*%
%ADD26RoundRect,0.250000X1.050000X0.550000X-1.050000X0.550000X-1.050000X-0.550000X1.050000X-0.550000X0*%
%ADD27RoundRect,0.125000X0.125000X0.125000X-0.125000X0.125000X-0.125000X-0.125000X0.125000X-0.125000X0*%
%ADD28RoundRect,0.250000X-0.625000X0.312500X-0.625000X-0.312500X0.625000X-0.312500X0.625000X0.312500X0*%
%ADD29RoundRect,0.225000X-0.250000X0.225000X-0.250000X-0.225000X0.250000X-0.225000X0.250000X0.225000X0*%
%ADD30RoundRect,0.100000X0.637500X0.100000X-0.637500X0.100000X-0.637500X-0.100000X0.637500X-0.100000X0*%
%ADD31RoundRect,0.150000X0.150000X-0.825000X0.150000X0.825000X-0.150000X0.825000X-0.150000X-0.825000X0*%
%ADD32R,2.800000X2.200000*%
%ADD33R,2.800000X2.800000*%
%ADD34RoundRect,0.150000X-0.150000X0.587500X-0.150000X-0.587500X0.150000X-0.587500X0.150000X0.587500X0*%
%ADD35R,1.150000X0.600000*%
%ADD36R,1.150000X0.300000*%
%ADD37R,2.000000X2.180000*%
%ADD38RoundRect,0.150000X-0.512500X-0.150000X0.512500X-0.150000X0.512500X0.150000X-0.512500X0.150000X0*%
%ADD39RoundRect,0.225000X0.225000X0.250000X-0.225000X0.250000X-0.225000X-0.250000X0.225000X-0.250000X0*%
%ADD40RoundRect,0.157500X-0.222500X0.157500X-0.222500X-0.157500X0.222500X-0.157500X0.222500X0.157500X0*%
%ADD41RoundRect,0.125000X-0.125000X0.600000X-0.125000X-0.600000X0.125000X-0.600000X0.125000X0.600000X0*%
%ADD42RoundRect,0.250000X-0.550000X1.500000X-0.550000X-1.500000X0.550000X-1.500000X0.550000X1.500000X0*%
%ADD43R,1.300000X0.700000*%
%ADD44R,1.651000X1.447800*%
%ADD45R,2.438400X1.447800*%
%ADD46R,1.651000X1.854200*%
%ADD47RoundRect,0.250000X0.550000X-1.500000X0.550000X1.500000X-0.550000X1.500000X-0.550000X-1.500000X0*%
%ADD48RoundRect,0.405000X-3.595000X0.945000X-3.595000X-0.945000X3.595000X-0.945000X3.595000X0.945000X0*%
G04 APERTURE END LIST*
D10*
%TO.C,R91*%
X14780000Y7622500D03*
X14780000Y7457500D03*
%TD*%
D11*
%TO.C,R67*%
X12877500Y7640000D03*
X13042500Y7640000D03*
%TD*%
D10*
%TO.C,R7*%
X10480000Y7362500D03*
X10480000Y7197500D03*
%TD*%
D12*
%TO.C,C22*%
X16720000Y3022500D03*
X16720000Y3177500D03*
%TD*%
D13*
%TO.C,U6*%
X9234000Y8060000D03*
X9107000Y8060000D03*
X8980000Y8060000D03*
X8853000Y8060000D03*
X8853000Y7565000D03*
X8980000Y7565000D03*
X9107000Y7565000D03*
X9234000Y7565000D03*
%TD*%
D12*
%TO.C,C47*%
X17820000Y4682500D03*
X17820000Y4837500D03*
%TD*%
D14*
%TO.C,U9*%
X3107500Y6529500D03*
X3107500Y6656500D03*
X3107500Y6783500D03*
X3107500Y6910500D03*
X2612500Y6910500D03*
X2612500Y6783500D03*
X2612500Y6656500D03*
X2612500Y6529500D03*
%TD*%
D15*
%TO.C,C6*%
X8125125Y6371250D03*
X8280125Y6371250D03*
%TD*%
D16*
%TO.C,R50*%
X775000Y3235000D03*
X775000Y3400000D03*
%TD*%
D10*
%TO.C,R90*%
X14460000Y7622500D03*
X14460000Y7457500D03*
%TD*%
D11*
%TO.C,R2*%
X1257500Y6700000D03*
X1422500Y6700000D03*
%TD*%
D12*
%TO.C,C24*%
X17440000Y3682500D03*
X17440000Y3837500D03*
%TD*%
D17*
%TO.C,RV1*%
X18232500Y2340000D03*
X18232500Y2140000D03*
X18232500Y1940000D03*
X18232500Y1740000D03*
X18232500Y1540000D03*
D18*
X19382500Y2560000D03*
X19382500Y1320000D03*
%TD*%
D19*
%TO.C,C12*%
X6160000Y7660000D03*
X6160000Y8020000D03*
%TD*%
D20*
%TO.C,R49*%
X9232875Y8289125D03*
X9067875Y8289125D03*
%TD*%
D15*
%TO.C,C14*%
X10122500Y8440000D03*
X10277500Y8440000D03*
%TD*%
D11*
%TO.C,R39*%
X10197500Y3300000D03*
X10362500Y3300000D03*
%TD*%
D21*
%TO.C,D15*%
X14350179Y1700000D03*
X14192679Y1700000D03*
%TD*%
D10*
%TO.C,R24*%
X11220000Y1102500D03*
X11220000Y937500D03*
%TD*%
D22*
%TO.C,D24*%
X14930000Y6980000D03*
X15150000Y6980000D03*
%TD*%
D11*
%TO.C,R36*%
X8957500Y3300000D03*
X9122500Y3300000D03*
%TD*%
D16*
%TO.C,R5*%
X10600000Y8277500D03*
X10600000Y8442500D03*
%TD*%
%TO.C,R51*%
X525000Y3235000D03*
X525000Y3400000D03*
%TD*%
D14*
%TO.C,U5*%
X5847500Y1555500D03*
X5847500Y1682500D03*
X5847500Y1809500D03*
X5847500Y1936500D03*
X5847500Y2063500D03*
X5847500Y2190500D03*
X5847500Y2317500D03*
X5847500Y2444500D03*
X5352500Y2444500D03*
X5352500Y2317500D03*
X5352500Y2190500D03*
X5352500Y2063500D03*
X5352500Y1936500D03*
X5352500Y1809500D03*
X5352500Y1682500D03*
X5352500Y1555500D03*
%TD*%
D23*
%TO.C,C49*%
X890000Y5160000D03*
X350000Y5160000D03*
%TD*%
D20*
%TO.C,R57*%
X9105875Y7336625D03*
X8940875Y7336625D03*
%TD*%
D21*
%TO.C,D5*%
X11893036Y3300000D03*
X11735536Y3300000D03*
%TD*%
D13*
%TO.C,U12*%
X7964500Y6847500D03*
X7837500Y6847500D03*
X7710500Y6847500D03*
X7583500Y6847500D03*
X7456500Y6847500D03*
X7329500Y6847500D03*
X7202500Y6847500D03*
X7075500Y6847500D03*
X7075500Y6352500D03*
X7202500Y6352500D03*
X7329500Y6352500D03*
X7456500Y6352500D03*
X7583500Y6352500D03*
X7710500Y6352500D03*
X7837500Y6352500D03*
X7964500Y6352500D03*
%TD*%
D11*
%TO.C,R70*%
X12657500Y1700000D03*
X12822500Y1700000D03*
%TD*%
D24*
%TO.C,C18*%
X2442500Y5755000D03*
X2442500Y5565000D03*
%TD*%
D10*
%TO.C,R16*%
X12440000Y2722500D03*
X12440000Y2557500D03*
%TD*%
D14*
%TO.C,U4*%
X5840000Y346000D03*
X5840000Y473000D03*
X5840000Y600000D03*
X5840000Y727000D03*
X5840000Y854000D03*
X5840000Y981000D03*
X5840000Y1108000D03*
X5840000Y1235000D03*
X5345000Y1235000D03*
X5345000Y1108000D03*
X5345000Y981000D03*
X5345000Y854000D03*
X5345000Y727000D03*
X5345000Y600000D03*
X5345000Y473000D03*
X5345000Y346000D03*
%TD*%
D21*
%TO.C,D10*%
X8207321Y1700000D03*
X8049821Y1700000D03*
%TD*%
D15*
%TO.C,C31*%
X2580000Y6360000D03*
X2735000Y6360000D03*
%TD*%
D21*
%TO.C,D11*%
X9435893Y1700000D03*
X9278393Y1700000D03*
%TD*%
D16*
%TO.C,R93*%
X4820000Y7257500D03*
X4820000Y7422500D03*
%TD*%
D11*
%TO.C,R38*%
X9997500Y7360000D03*
X10162500Y7360000D03*
%TD*%
D25*
%TO.C,U3*%
X5352500Y7410500D03*
X5352500Y7283500D03*
X5352500Y7156500D03*
X5352500Y7029500D03*
X5847500Y7029500D03*
X5847500Y7156500D03*
X5847500Y7283500D03*
X5847500Y7410500D03*
%TD*%
D16*
%TO.C,R52*%
X1550000Y3235000D03*
X1550000Y3400000D03*
%TD*%
D10*
%TO.C,R64*%
X14300000Y7622500D03*
X14300000Y7457500D03*
%TD*%
D11*
%TO.C,R17*%
X13356250Y7798500D03*
X13521250Y7798500D03*
%TD*%
D12*
%TO.C,C7*%
X5120000Y1545000D03*
X5120000Y1700000D03*
%TD*%
D21*
%TO.C,D2*%
X8207321Y3300000D03*
X8049821Y3300000D03*
%TD*%
D10*
%TO.C,R21*%
X14920000Y2722500D03*
X14920000Y2557500D03*
%TD*%
D11*
%TO.C,R42*%
X13877500Y3300000D03*
X14042500Y3300000D03*
%TD*%
D10*
%TO.C,R22*%
X6300000Y1102500D03*
X6300000Y937500D03*
%TD*%
%TO.C,R92*%
X14780000Y7302500D03*
X14780000Y7137500D03*
%TD*%
D26*
%TO.C,C10*%
X16300000Y7000000D03*
X15940000Y7000000D03*
%TD*%
D11*
%TO.C,R43*%
X6497500Y3300000D03*
X6662500Y3300000D03*
%TD*%
D16*
%TO.C,R23*%
X13280000Y7017500D03*
X13280000Y7182500D03*
%TD*%
D10*
%TO.C,R94*%
X4980000Y7422500D03*
X4980000Y7257500D03*
%TD*%
D16*
%TO.C,R60*%
X9277375Y7158875D03*
X9277375Y7323875D03*
%TD*%
D27*
%TO.C,D23*%
X15150000Y6780000D03*
X14930000Y6780000D03*
%TD*%
D26*
%TO.C,C9*%
X14520000Y7100000D03*
X14160000Y7100000D03*
%TD*%
D21*
%TO.C,D4*%
X10664464Y3300000D03*
X10506964Y3300000D03*
%TD*%
D10*
%TO.C,R74*%
X3060000Y2662500D03*
X3060000Y2497500D03*
%TD*%
D28*
%TO.C,R9*%
X1260000Y5686250D03*
X1260000Y5393750D03*
%TD*%
D21*
%TO.C,D1*%
X6978750Y3300000D03*
X6821250Y3300000D03*
%TD*%
D16*
%TO.C,R54*%
X1050000Y3235000D03*
X1050000Y3400000D03*
%TD*%
D11*
%TO.C,R40*%
X11417500Y3300000D03*
X11582500Y3300000D03*
%TD*%
D10*
%TO.C,R27*%
X8760000Y1102500D03*
X8760000Y937500D03*
%TD*%
D29*
%TO.C,C1*%
X16740000Y6637500D03*
X16740000Y6482500D03*
%TD*%
D21*
%TO.C,D12*%
X10664464Y1700000D03*
X10506964Y1700000D03*
%TD*%
%TO.C,D9*%
X6978750Y1700000D03*
X6821250Y1700000D03*
%TD*%
D10*
%TO.C,R89*%
X15700000Y7162500D03*
X15700000Y6997500D03*
%TD*%
D11*
%TO.C,R1*%
X1257500Y7220000D03*
X1422500Y7220000D03*
%TD*%
D15*
%TO.C,C32*%
X5425000Y3020000D03*
X5580000Y3020000D03*
%TD*%
D14*
%TO.C,U15*%
X15487500Y7349500D03*
X15487500Y7476500D03*
X15487500Y7603500D03*
X15487500Y7730500D03*
X14992500Y7730500D03*
X14992500Y7603500D03*
X14992500Y7476500D03*
X14992500Y7349500D03*
%TD*%
D29*
%TO.C,C23*%
X2262500Y5755000D03*
X2262500Y5600000D03*
%TD*%
D12*
%TO.C,C28*%
X16720000Y3982500D03*
X16720000Y4137500D03*
%TD*%
D10*
%TO.C,R25*%
X7560000Y1102500D03*
X7560000Y937500D03*
%TD*%
%TO.C,R30*%
X10000000Y1102500D03*
X10000000Y937500D03*
%TD*%
D21*
%TO.C,D7*%
X14350179Y3300000D03*
X14192679Y3300000D03*
%TD*%
D10*
%TO.C,R28*%
X13680000Y1102500D03*
X13680000Y937500D03*
%TD*%
%TO.C,R29*%
X16740000Y6962500D03*
X16740000Y6797500D03*
%TD*%
D29*
%TO.C,C19*%
X9880000Y8097500D03*
X9880000Y7942500D03*
%TD*%
D16*
%TO.C,R86*%
X3360000Y6677500D03*
X3360000Y6842500D03*
%TD*%
D15*
%TO.C,C26*%
X4662500Y7580000D03*
X4817500Y7580000D03*
%TD*%
D11*
%TO.C,R87*%
X1940000Y5600000D03*
X2105000Y5600000D03*
%TD*%
D10*
%TO.C,R3*%
X16560000Y6642500D03*
X16560000Y6477500D03*
%TD*%
D23*
%TO.C,C46*%
X890000Y5880000D03*
X350000Y5880000D03*
%TD*%
D30*
%TO.C,U8*%
X6186250Y3197500D03*
X6186250Y3262500D03*
X6186250Y3327500D03*
X6186250Y3392500D03*
X6186250Y3457500D03*
X6186250Y3522500D03*
X6186250Y3587500D03*
X6186250Y3652500D03*
X6186250Y3717500D03*
X6186250Y3782500D03*
X6186250Y3847500D03*
X6186250Y3912500D03*
X6186250Y3977500D03*
X6186250Y4042500D03*
X5613750Y4042500D03*
X5613750Y3977500D03*
X5613750Y3912500D03*
X5613750Y3847500D03*
X5613750Y3782500D03*
X5613750Y3717500D03*
X5613750Y3652500D03*
X5613750Y3587500D03*
X5613750Y3522500D03*
X5613750Y3457500D03*
X5613750Y3392500D03*
X5613750Y3327500D03*
X5613750Y3262500D03*
X5613750Y3197500D03*
%TD*%
D16*
%TO.C,R10*%
X17800000Y7257500D03*
X17800000Y7422500D03*
%TD*%
D11*
%TO.C,R37*%
X10157500Y7040000D03*
X10322500Y7040000D03*
%TD*%
D16*
%TO.C,R53*%
X1300000Y3235000D03*
X1300000Y3400000D03*
%TD*%
D11*
%TO.C,R34*%
X10117500Y8280000D03*
X10282500Y8280000D03*
%TD*%
%TO.C,R56*%
X8940875Y7177875D03*
X9105875Y7177875D03*
%TD*%
D31*
%TO.C,U2*%
X10049500Y7572500D03*
X10176500Y7572500D03*
X10303500Y7572500D03*
X10430500Y7572500D03*
X10430500Y8067500D03*
X10303500Y8067500D03*
X10176500Y8067500D03*
X10049500Y8067500D03*
%TD*%
D10*
%TO.C,R32*%
X16020000Y7482500D03*
X16020000Y7317500D03*
%TD*%
D32*
%TO.C,J5*%
X16990000Y720000D03*
X17730000Y520000D03*
D33*
X17730000Y1460000D03*
%TD*%
D20*
%TO.C,R33*%
X10282500Y8600000D03*
X10117500Y8600000D03*
%TD*%
D12*
%TO.C,C8*%
X5120000Y342500D03*
X5120000Y497500D03*
%TD*%
D21*
%TO.C,D13*%
X11893036Y1700000D03*
X11735536Y1700000D03*
%TD*%
D34*
%TO.C,Q2*%
X13055000Y7453750D03*
X12865000Y7453750D03*
X12960000Y7266250D03*
%TD*%
D29*
%TO.C,C17*%
X6060000Y7297500D03*
X6060000Y7142500D03*
%TD*%
D21*
%TO.C,D16*%
X15578750Y1700000D03*
X15421250Y1700000D03*
%TD*%
D35*
%TO.C,J7*%
X707500Y7311000D03*
X707500Y7231000D03*
D36*
X707500Y7116000D03*
X707500Y7016000D03*
X707500Y6966000D03*
X707500Y6866000D03*
D35*
X707500Y6671000D03*
X707500Y6751000D03*
D36*
X707500Y6816000D03*
X707500Y6916000D03*
X707500Y7066000D03*
X707500Y7166000D03*
D37*
X650000Y7502000D03*
X650000Y6480000D03*
X257000Y7502000D03*
X257000Y6480000D03*
%TD*%
D10*
%TO.C,R20*%
X13680000Y2722500D03*
X13680000Y2557500D03*
%TD*%
D38*
%TO.C,U14*%
X1281260Y7055000D03*
X1281260Y6960000D03*
X1281260Y6865000D03*
X1508760Y6865000D03*
X1508760Y6960000D03*
X1508760Y7055000D03*
%TD*%
D10*
%TO.C,R65*%
X16180000Y7482500D03*
X16180000Y7317500D03*
%TD*%
D16*
%TO.C,R78*%
X17274000Y3017500D03*
X17274000Y3182500D03*
%TD*%
D21*
%TO.C,D6*%
X13121607Y3300000D03*
X12964107Y3300000D03*
%TD*%
D10*
%TO.C,R19*%
X13597500Y7182500D03*
X13597500Y7017500D03*
%TD*%
%TO.C,R31*%
X14880000Y1102500D03*
X14880000Y937500D03*
%TD*%
D34*
%TO.C,Q1*%
X13533750Y7447750D03*
X13343750Y7447750D03*
X13438750Y7260250D03*
%TD*%
D11*
%TO.C,R66*%
X12877500Y7800000D03*
X13042500Y7800000D03*
%TD*%
D16*
%TO.C,R59*%
X17820000Y8400000D03*
X17820000Y8565000D03*
%TD*%
D10*
%TO.C,R55*%
X9390000Y8452500D03*
X9390000Y8287500D03*
%TD*%
D21*
%TO.C,D8*%
X15578750Y3300000D03*
X15421250Y3300000D03*
%TD*%
D29*
%TO.C,C34*%
X17820000Y4177500D03*
X17820000Y4022500D03*
%TD*%
D10*
%TO.C,R6*%
X17820000Y9525000D03*
X17820000Y9360000D03*
%TD*%
D15*
%TO.C,C5*%
X5682500Y7580000D03*
X5837500Y7580000D03*
%TD*%
D11*
%TO.C,R58*%
X10197500Y1700000D03*
X10362500Y1700000D03*
%TD*%
%TO.C,R48*%
X9067875Y8447875D03*
X9232875Y8447875D03*
%TD*%
D22*
%TO.C,D21*%
X15330000Y6780000D03*
X15550000Y6780000D03*
%TD*%
D15*
%TO.C,C15*%
X10002500Y7200000D03*
X10157500Y7200000D03*
%TD*%
D39*
%TO.C,C4*%
X6537500Y7460000D03*
X6382500Y7460000D03*
%TD*%
D20*
%TO.C,R88*%
X2105000Y5760000D03*
X1940000Y5760000D03*
%TD*%
D11*
%TO.C,R47*%
X8957500Y1700000D03*
X9122500Y1700000D03*
%TD*%
D40*
%TO.C,U1*%
X17034000Y3338000D03*
X16940000Y3338000D03*
X17034000Y3260000D03*
X16940000Y3260000D03*
D41*
X17084500Y3514000D03*
X17019500Y3514000D03*
X16954500Y3514000D03*
X16889500Y3514000D03*
X16889500Y3084000D03*
X16954500Y3084000D03*
X17019500Y3084000D03*
X17084500Y3084000D03*
%TD*%
D10*
%TO.C,R8*%
X10320000Y7362500D03*
X10320000Y7197500D03*
%TD*%
D11*
%TO.C,R69*%
X11417500Y1700000D03*
X11582500Y1700000D03*
%TD*%
D42*
%TO.C,C29*%
X17280000Y2710000D03*
X17280000Y2170000D03*
%TD*%
%TO.C,C30*%
X16540000Y2710000D03*
X16540000Y2170000D03*
%TD*%
D16*
%TO.C,R73*%
X12820000Y7017500D03*
X12820000Y7182500D03*
%TD*%
D10*
%TO.C,R13*%
X8740000Y2722500D03*
X8740000Y2557500D03*
%TD*%
%TO.C,R75*%
X3360000Y2662500D03*
X3360000Y2497500D03*
%TD*%
D21*
%TO.C,D3*%
X9435893Y3300000D03*
X9278393Y3300000D03*
%TD*%
D43*
%TO.C,MICRO_SD7*%
X1544880Y1607020D03*
X1544880Y1717020D03*
X1544880Y1827020D03*
X1544880Y1937020D03*
X1544880Y2047020D03*
X1544880Y2157020D03*
X1544880Y2267020D03*
X1544880Y2377020D03*
X1544880Y2487020D03*
D44*
X1467500Y2628860D03*
D45*
X497500Y2628860D03*
X497500Y1046380D03*
D46*
X1467500Y1123880D03*
%TD*%
D16*
%TO.C,R76*%
X10440000Y8277500D03*
X10440000Y8442500D03*
%TD*%
D10*
%TO.C,R14*%
X9980000Y2722500D03*
X9980000Y2557500D03*
%TD*%
D29*
%TO.C,C20*%
X9433000Y7637500D03*
X9433000Y7482500D03*
%TD*%
D11*
%TO.C,R45*%
X6497500Y1700000D03*
X6662500Y1700000D03*
%TD*%
D10*
%TO.C,R96*%
X4660000Y7422500D03*
X4660000Y7257500D03*
%TD*%
D21*
%TO.C,D14*%
X13121607Y1700000D03*
X12964107Y1700000D03*
%TD*%
D16*
%TO.C,R77*%
X16720000Y3337500D03*
X16720000Y3502500D03*
%TD*%
D47*
%TO.C,C2*%
X2020000Y7070000D03*
X2020000Y7610000D03*
%TD*%
D27*
%TO.C,D22*%
X15550000Y6980000D03*
X15330000Y6980000D03*
%TD*%
D16*
%TO.C,R62*%
X6380000Y7137500D03*
X6380000Y7302500D03*
%TD*%
D10*
%TO.C,R12*%
X7520000Y2722500D03*
X7520000Y2557500D03*
%TD*%
D11*
%TO.C,R71*%
X13877500Y1700000D03*
X14042500Y1700000D03*
%TD*%
%TO.C,R44*%
X15097500Y3300000D03*
X15262500Y3300000D03*
%TD*%
%TO.C,R72*%
X15097500Y1700000D03*
X15262500Y1700000D03*
%TD*%
%TO.C,R35*%
X7737500Y3300000D03*
X7902500Y3300000D03*
%TD*%
D12*
%TO.C,C25*%
X14620000Y7462500D03*
X14620000Y7617500D03*
%TD*%
D48*
%TO.C,L1*%
X2020000Y6575000D03*
X2020000Y6065000D03*
%TD*%
D10*
%TO.C,R11*%
X6280000Y2722500D03*
X6280000Y2557500D03*
%TD*%
%TO.C,R61*%
X6540000Y7302500D03*
X6540000Y7137500D03*
%TD*%
%TO.C,R80*%
X16720000Y3825000D03*
X16720000Y3660000D03*
%TD*%
D42*
%TO.C,C16*%
X2920000Y5950000D03*
X2920000Y5410000D03*
%TD*%
D16*
%TO.C,R79*%
X17440000Y3357500D03*
X17440000Y3522500D03*
%TD*%
D12*
%TO.C,C13*%
X15860000Y7322500D03*
X15860000Y7477500D03*
%TD*%
D10*
%TO.C,R63*%
X6220000Y7302500D03*
X6220000Y7137500D03*
%TD*%
D11*
%TO.C,R46*%
X7737500Y1700000D03*
X7902500Y1700000D03*
%TD*%
D10*
%TO.C,R68*%
X13100000Y7182500D03*
X13100000Y7017500D03*
%TD*%
D19*
%TO.C,C11*%
X5140000Y7660000D03*
X5140000Y8020000D03*
%TD*%
D11*
%TO.C,R18*%
X13356250Y7639750D03*
X13521250Y7639750D03*
%TD*%
D16*
%TO.C,R4*%
X17820000Y4997500D03*
X17820000Y5162500D03*
%TD*%
D39*
%TO.C,C3*%
X15097500Y7180000D03*
X14942500Y7180000D03*
%TD*%
D10*
%TO.C,R85*%
X15700000Y7482500D03*
X15700000Y7317500D03*
%TD*%
D29*
%TO.C,C27*%
X5140000Y7417500D03*
X5140000Y7262500D03*
%TD*%
D10*
%TO.C,R26*%
X12440000Y1102500D03*
X12440000Y937500D03*
%TD*%
D11*
%TO.C,R41*%
X12657500Y3300000D03*
X12822500Y3300000D03*
%TD*%
D29*
%TO.C,C21*%
X17274000Y3517500D03*
X17274000Y3362500D03*
%TD*%
D10*
%TO.C,R15*%
X11200000Y2722500D03*
X11200000Y2557500D03*
%TD*%
M02*
