%TF.GenerationSoftware,KiCad,Pcbnew,9.0.2*%
%TF.CreationDate,2025-12-10T09:57:11-08:00*%
%TF.ProjectId,ES-Seed3-DevKit-Desktop-Rev3,45532d53-6565-4643-932d-4465764b6974,rev?*%
%TF.SameCoordinates,Original*%
%TF.FileFunction,Legend,Bot*%
%TF.FilePolarity,Positive*%
%FSLAX45Y45*%
G04 Gerber Fmt 4.5, Leading zero omitted, Abs format (unit mm)*
G04 Created by KiCad (PCBNEW 9.0.2) date 2025-12-10 09:57:11*
%MOMM*%
%LPD*%
G01*
G04 APERTURE LIST*
G04 Aperture macros list*
%AMRoundRect*
0 Rectangle with rounded corners*
0 $1 Rounding radius*
0 $2 $3 $4 $5 $6 $7 $8 $9 X,Y pos of 4 corners*
0 Add a 4 corners polygon primitive as box body*
4,1,4,$2,$3,$4,$5,$6,$7,$8,$9,$2,$3,0*
0 Add four circle primitives for the rounded corners*
1,1,$1+$1,$2,$3*
1,1,$1+$1,$4,$5*
1,1,$1+$1,$6,$7*
1,1,$1+$1,$8,$9*
0 Add four rect primitives between the rounded corners*
20,1,$1+$1,$2,$3,$4,$5,0*
20,1,$1+$1,$4,$5,$6,$7,0*
20,1,$1+$1,$6,$7,$8,$9,0*
20,1,$1+$1,$8,$9,$2,$3,0*%
%AMFreePoly0*
4,1,25,0.401445,0.907196,0.413568,0.896842,0.896842,0.413568,0.925349,0.357620,0.926600,0.341726,0.926600,-0.341726,0.907196,-0.401445,0.896842,-0.413568,0.413568,-0.896842,0.357620,-0.925349,0.341726,-0.926600,-0.341726,-0.926600,-0.401445,-0.907196,-0.413568,-0.896842,-0.896842,-0.413568,-0.925349,-0.357620,-0.926600,-0.341726,-0.926600,0.341726,-0.907196,0.401445,-0.896842,0.413568,
-0.413568,0.896842,-0.357620,0.925349,-0.341726,0.926600,0.341726,0.926600,0.401445,0.907196,0.401445,0.907196,$1*%
G04 Aperture macros list end*
%ADD10C,0.121920*%
%ADD11C,0.300000*%
%ADD12C,0.127000*%
%ADD13C,0.101600*%
%ADD14C,2.228200*%
%ADD15C,3.609200*%
%ADD16C,7.000000*%
%ADD17RoundRect,0.101600X-0.825000X0.825000X-0.825000X-0.825000X0.825000X-0.825000X0.825000X0.825000X0*%
%ADD18FreePoly0,270.000000*%
%ADD19RoundRect,0.101600X-1.558000X1.558000X-1.558000X-1.558000X1.558000X-1.558000X1.558000X1.558000X0*%
%ADD20C,1.853200*%
%ADD21O,3.048000X1.625600*%
%ADD22C,2.082800*%
%ADD23R,1.700000X1.700000*%
%ADD24C,1.700000*%
%ADD25C,3.000000*%
%ADD26C,0.650000*%
%ADD27RoundRect,0.250000X0.550000X0.550000X-0.550000X0.550000X-0.550000X-0.550000X0.550000X-0.550000X0*%
%ADD28C,1.600000*%
%ADD29C,0.999997*%
G04 APERTURE END LIST*
D10*
X2826537Y10386880D02*
X2833213Y10393557D01*
X2833213Y10393557D02*
X2846566Y10413587D01*
X2846566Y10413587D02*
X2853243Y10426940D01*
X2853243Y10426940D02*
X2859919Y10446969D01*
X2859919Y10446969D02*
X2866596Y10480352D01*
X2866596Y10480352D02*
X2866596Y10507059D01*
X2866596Y10507059D02*
X2859919Y10540441D01*
X2859919Y10540441D02*
X2853243Y10560471D01*
X2853243Y10560471D02*
X2846566Y10573824D01*
X2846566Y10573824D02*
X2833213Y10593854D01*
X2833213Y10593854D02*
X2826537Y10600531D01*
X2693005Y10453646D02*
X2699682Y10446969D01*
X2699682Y10446969D02*
X2719712Y10440293D01*
X2719712Y10440293D02*
X2733065Y10440293D01*
X2733065Y10440293D02*
X2753094Y10446969D01*
X2753094Y10446969D02*
X2766448Y10460323D01*
X2766448Y10460323D02*
X2773124Y10473676D01*
X2773124Y10473676D02*
X2779801Y10500382D01*
X2779801Y10500382D02*
X2779801Y10520412D01*
X2779801Y10520412D02*
X2773124Y10547118D01*
X2773124Y10547118D02*
X2766448Y10560471D01*
X2766448Y10560471D02*
X2753094Y10573824D01*
X2753094Y10573824D02*
X2733065Y10580501D01*
X2733065Y10580501D02*
X2719712Y10580501D01*
X2719712Y10580501D02*
X2699682Y10573824D01*
X2699682Y10573824D02*
X2693005Y10567148D01*
X2646269Y10386880D02*
X2639593Y10393557D01*
X2639593Y10393557D02*
X2626240Y10413587D01*
X2626240Y10413587D02*
X2619563Y10426940D01*
X2619563Y10426940D02*
X2612886Y10446969D01*
X2612886Y10446969D02*
X2606210Y10480352D01*
X2606210Y10480352D02*
X2606210Y10507059D01*
X2606210Y10507059D02*
X2612886Y10540441D01*
X2612886Y10540441D02*
X2619563Y10560471D01*
X2619563Y10560471D02*
X2626240Y10573824D01*
X2626240Y10573824D02*
X2639593Y10593854D01*
X2639593Y10593854D02*
X2646269Y10600531D01*
X2432619Y10440293D02*
X2432619Y10580501D01*
X2432619Y10580501D02*
X2399236Y10580501D01*
X2399236Y10580501D02*
X2379206Y10573824D01*
X2379206Y10573824D02*
X2365853Y10560471D01*
X2365853Y10560471D02*
X2359177Y10547118D01*
X2359177Y10547118D02*
X2352500Y10520412D01*
X2352500Y10520412D02*
X2352500Y10500382D01*
X2352500Y10500382D02*
X2359177Y10473676D01*
X2359177Y10473676D02*
X2365853Y10460323D01*
X2365853Y10460323D02*
X2379206Y10446969D01*
X2379206Y10446969D02*
X2399236Y10440293D01*
X2399236Y10440293D02*
X2432619Y10440293D01*
X2232322Y10440293D02*
X2232322Y10513735D01*
X2232322Y10513735D02*
X2238998Y10527088D01*
X2238998Y10527088D02*
X2252352Y10533765D01*
X2252352Y10533765D02*
X2279058Y10533765D01*
X2279058Y10533765D02*
X2292411Y10527088D01*
X2232322Y10446969D02*
X2245675Y10440293D01*
X2245675Y10440293D02*
X2279058Y10440293D01*
X2279058Y10440293D02*
X2292411Y10446969D01*
X2292411Y10446969D02*
X2299088Y10460323D01*
X2299088Y10460323D02*
X2299088Y10473676D01*
X2299088Y10473676D02*
X2292411Y10487029D01*
X2292411Y10487029D02*
X2279058Y10493705D01*
X2279058Y10493705D02*
X2245675Y10493705D01*
X2245675Y10493705D02*
X2232322Y10500382D01*
X2165556Y10440293D02*
X2165556Y10533765D01*
X2165556Y10580501D02*
X2172233Y10573824D01*
X2172233Y10573824D02*
X2165556Y10567148D01*
X2165556Y10567148D02*
X2158880Y10573824D01*
X2158880Y10573824D02*
X2165556Y10580501D01*
X2165556Y10580501D02*
X2165556Y10567148D01*
X2105467Y10446969D02*
X2092114Y10440293D01*
X2092114Y10440293D02*
X2065407Y10440293D01*
X2065407Y10440293D02*
X2052054Y10446969D01*
X2052054Y10446969D02*
X2045378Y10460323D01*
X2045378Y10460323D02*
X2045378Y10466999D01*
X2045378Y10466999D02*
X2052054Y10480352D01*
X2052054Y10480352D02*
X2065407Y10487029D01*
X2065407Y10487029D02*
X2085437Y10487029D01*
X2085437Y10487029D02*
X2098790Y10493705D01*
X2098790Y10493705D02*
X2105467Y10507059D01*
X2105467Y10507059D02*
X2105467Y10513735D01*
X2105467Y10513735D02*
X2098790Y10527088D01*
X2098790Y10527088D02*
X2085437Y10533765D01*
X2085437Y10533765D02*
X2065407Y10533765D01*
X2065407Y10533765D02*
X2052054Y10527088D01*
X1998642Y10533765D02*
X1965259Y10440293D01*
X1931876Y10533765D02*
X1965259Y10440293D01*
X1965259Y10440293D02*
X1978612Y10406910D01*
X1978612Y10406910D02*
X1985289Y10400233D01*
X1985289Y10400233D02*
X1998642Y10393557D01*
X1778315Y10567148D02*
X1771638Y10573824D01*
X1771638Y10573824D02*
X1758285Y10580501D01*
X1758285Y10580501D02*
X1724902Y10580501D01*
X1724902Y10580501D02*
X1711549Y10573824D01*
X1711549Y10573824D02*
X1704873Y10567148D01*
X1704873Y10567148D02*
X1698196Y10553795D01*
X1698196Y10553795D02*
X1698196Y10540441D01*
X1698196Y10540441D02*
X1704873Y10520412D01*
X1704873Y10520412D02*
X1784992Y10440293D01*
X1784992Y10440293D02*
X1698196Y10440293D01*
X1611401Y10580501D02*
X1598048Y10580501D01*
X1598048Y10580501D02*
X1584694Y10573824D01*
X1584694Y10573824D02*
X1578018Y10567148D01*
X1578018Y10567148D02*
X1571341Y10553795D01*
X1571341Y10553795D02*
X1564665Y10527088D01*
X1564665Y10527088D02*
X1564665Y10493705D01*
X1564665Y10493705D02*
X1571341Y10466999D01*
X1571341Y10466999D02*
X1578018Y10453646D01*
X1578018Y10453646D02*
X1584694Y10446969D01*
X1584694Y10446969D02*
X1598048Y10440293D01*
X1598048Y10440293D02*
X1611401Y10440293D01*
X1611401Y10440293D02*
X1624754Y10446969D01*
X1624754Y10446969D02*
X1631430Y10453646D01*
X1631430Y10453646D02*
X1638107Y10466999D01*
X1638107Y10466999D02*
X1644784Y10493705D01*
X1644784Y10493705D02*
X1644784Y10527088D01*
X1644784Y10527088D02*
X1638107Y10553795D01*
X1638107Y10553795D02*
X1631430Y10567148D01*
X1631430Y10567148D02*
X1624754Y10573824D01*
X1624754Y10573824D02*
X1611401Y10580501D01*
X1511252Y10567148D02*
X1504576Y10573824D01*
X1504576Y10573824D02*
X1491223Y10580501D01*
X1491223Y10580501D02*
X1457840Y10580501D01*
X1457840Y10580501D02*
X1444487Y10573824D01*
X1444487Y10573824D02*
X1437810Y10567148D01*
X1437810Y10567148D02*
X1431133Y10553795D01*
X1431133Y10553795D02*
X1431133Y10540441D01*
X1431133Y10540441D02*
X1437810Y10520412D01*
X1437810Y10520412D02*
X1517929Y10440293D01*
X1517929Y10440293D02*
X1431133Y10440293D01*
X1304279Y10580501D02*
X1371044Y10580501D01*
X1371044Y10580501D02*
X1377721Y10513735D01*
X1377721Y10513735D02*
X1371044Y10520412D01*
X1371044Y10520412D02*
X1357691Y10527088D01*
X1357691Y10527088D02*
X1324308Y10527088D01*
X1324308Y10527088D02*
X1310955Y10520412D01*
X1310955Y10520412D02*
X1304279Y10513735D01*
X1304279Y10513735D02*
X1297602Y10500382D01*
X1297602Y10500382D02*
X1297602Y10466999D01*
X1297602Y10466999D02*
X1304279Y10453646D01*
X1304279Y10453646D02*
X1310955Y10446969D01*
X1310955Y10446969D02*
X1324308Y10440293D01*
X1324308Y10440293D02*
X1357691Y10440293D01*
X1357691Y10440293D02*
X1371044Y10446969D01*
X1371044Y10446969D02*
X1377721Y10453646D01*
D11*
X2258835Y10759917D02*
X2308835Y10831346D01*
X2344549Y10759917D02*
X2344549Y10909917D01*
X2344549Y10909917D02*
X2287406Y10909917D01*
X2287406Y10909917D02*
X2273120Y10902774D01*
X2273120Y10902774D02*
X2265977Y10895632D01*
X2265977Y10895632D02*
X2258835Y10881346D01*
X2258835Y10881346D02*
X2258835Y10859917D01*
X2258835Y10859917D02*
X2265977Y10845632D01*
X2265977Y10845632D02*
X2273120Y10838489D01*
X2273120Y10838489D02*
X2287406Y10831346D01*
X2287406Y10831346D02*
X2344549Y10831346D01*
X2137406Y10767060D02*
X2151692Y10759917D01*
X2151692Y10759917D02*
X2180263Y10759917D01*
X2180263Y10759917D02*
X2194549Y10767060D01*
X2194549Y10767060D02*
X2201692Y10781346D01*
X2201692Y10781346D02*
X2201692Y10838489D01*
X2201692Y10838489D02*
X2194549Y10852774D01*
X2194549Y10852774D02*
X2180263Y10859917D01*
X2180263Y10859917D02*
X2151692Y10859917D01*
X2151692Y10859917D02*
X2137406Y10852774D01*
X2137406Y10852774D02*
X2130263Y10838489D01*
X2130263Y10838489D02*
X2130263Y10824203D01*
X2130263Y10824203D02*
X2201692Y10809917D01*
X2080263Y10859917D02*
X2044549Y10759917D01*
X2044549Y10759917D02*
X2008835Y10859917D01*
X1958835Y10895632D02*
X1951692Y10902774D01*
X1951692Y10902774D02*
X1937406Y10909917D01*
X1937406Y10909917D02*
X1901692Y10909917D01*
X1901692Y10909917D02*
X1887406Y10902774D01*
X1887406Y10902774D02*
X1880263Y10895632D01*
X1880263Y10895632D02*
X1873120Y10881346D01*
X1873120Y10881346D02*
X1873120Y10867060D01*
X1873120Y10867060D02*
X1880263Y10845632D01*
X1880263Y10845632D02*
X1965977Y10759917D01*
X1965977Y10759917D02*
X1873120Y10759917D01*
D12*
%TO.C,J10*%
X18371421Y4770000D02*
G75*
G02*
X18088579Y4770000I-141421J0D01*
G01*
X18088579Y4770000D02*
G75*
G02*
X18371421Y4770000I141421J0D01*
G01*
X18371421Y3770000D02*
G75*
G02*
X18088579Y3770000I-141421J0D01*
G01*
X18088579Y3770000D02*
G75*
G02*
X18371421Y3770000I141421J0D01*
G01*
X18621421Y5020000D02*
G75*
G02*
X18338579Y5020000I-141421J0D01*
G01*
X18338579Y5020000D02*
G75*
G02*
X18621421Y5020000I141421J0D01*
G01*
X18621421Y4270000D02*
G75*
G02*
X18338579Y4270000I-141421J0D01*
G01*
X18338579Y4270000D02*
G75*
G02*
X18621421Y4270000I141421J0D01*
G01*
X18621421Y3520000D02*
G75*
G02*
X18338579Y3520000I-141421J0D01*
G01*
X18338579Y3520000D02*
G75*
G02*
X18621421Y3520000I141421J0D01*
G01*
X19195000Y5020000D02*
G75*
G02*
X18765000Y5020000I-215000J0D01*
G01*
X18765000Y5020000D02*
G75*
G02*
X19195000Y5020000I215000J0D01*
G01*
X19195000Y3520000D02*
G75*
G02*
X18765000Y3520000I-215000J0D01*
G01*
X18765000Y3520000D02*
G75*
G02*
X19195000Y3520000I215000J0D01*
G01*
X19621421Y4520000D02*
G75*
G02*
X19338579Y4520000I-141421J0D01*
G01*
X19338579Y4520000D02*
G75*
G02*
X19621421Y4520000I141421J0D01*
G01*
X19621421Y4020000D02*
G75*
G02*
X19338579Y4020000I-141421J0D01*
G01*
X19338579Y4020000D02*
G75*
G02*
X19621421Y4020000I141421J0D01*
G01*
%TO.C,J8*%
X18371421Y7170000D02*
G75*
G02*
X18088579Y7170000I-141421J0D01*
G01*
X18088579Y7170000D02*
G75*
G02*
X18371421Y7170000I141421J0D01*
G01*
X18371421Y6170000D02*
G75*
G02*
X18088579Y6170000I-141421J0D01*
G01*
X18088579Y6170000D02*
G75*
G02*
X18371421Y6170000I141421J0D01*
G01*
X18621421Y7420000D02*
G75*
G02*
X18338579Y7420000I-141421J0D01*
G01*
X18338579Y7420000D02*
G75*
G02*
X18621421Y7420000I141421J0D01*
G01*
X18621421Y6670000D02*
G75*
G02*
X18338579Y6670000I-141421J0D01*
G01*
X18338579Y6670000D02*
G75*
G02*
X18621421Y6670000I141421J0D01*
G01*
X18621421Y5920000D02*
G75*
G02*
X18338579Y5920000I-141421J0D01*
G01*
X18338579Y5920000D02*
G75*
G02*
X18621421Y5920000I141421J0D01*
G01*
X19195000Y7420000D02*
G75*
G02*
X18765000Y7420000I-215000J0D01*
G01*
X18765000Y7420000D02*
G75*
G02*
X19195000Y7420000I215000J0D01*
G01*
X19195000Y5920000D02*
G75*
G02*
X18765000Y5920000I-215000J0D01*
G01*
X18765000Y5920000D02*
G75*
G02*
X19195000Y5920000I215000J0D01*
G01*
X19621421Y6920000D02*
G75*
G02*
X19338579Y6920000I-141421J0D01*
G01*
X19338579Y6920000D02*
G75*
G02*
X19621421Y6920000I141421J0D01*
G01*
X19621421Y6420000D02*
G75*
G02*
X19338579Y6420000I-141421J0D01*
G01*
X19338579Y6420000D02*
G75*
G02*
X19621421Y6420000I141421J0D01*
G01*
%TO.C,VR7*%
X14859750Y5500000D02*
G75*
G02*
X14399750Y5500000I-230000J0D01*
G01*
X14399750Y5500000D02*
G75*
G02*
X14859750Y5500000I230000J0D01*
G01*
X15009750Y4800000D02*
G75*
G02*
X14649750Y4800000I-180000J0D01*
G01*
X14649750Y4800000D02*
G75*
G02*
X15009750Y4800000I180000J0D01*
G01*
X15259750Y4800000D02*
G75*
G02*
X14899750Y4800000I-180000J0D01*
G01*
X14899750Y4800000D02*
G75*
G02*
X15259750Y4800000I180000J0D01*
G01*
X15509750Y4800000D02*
G75*
G02*
X15149750Y4800000I-180000J0D01*
G01*
X15149750Y4800000D02*
G75*
G02*
X15509750Y4800000I180000J0D01*
G01*
X15759750Y5500000D02*
G75*
G02*
X15299750Y5500000I-230000J0D01*
G01*
X15299750Y5500000D02*
G75*
G02*
X15759750Y5500000I230000J0D01*
G01*
%TO.C,VR3*%
X8748150Y5500000D02*
G75*
G02*
X8288150Y5500000I-230000J0D01*
G01*
X8288150Y5500000D02*
G75*
G02*
X8748150Y5500000I230000J0D01*
G01*
X8898150Y4800000D02*
G75*
G02*
X8538150Y4800000I-180000J0D01*
G01*
X8538150Y4800000D02*
G75*
G02*
X8898150Y4800000I180000J0D01*
G01*
X9148150Y4800000D02*
G75*
G02*
X8788150Y4800000I-180000J0D01*
G01*
X8788150Y4800000D02*
G75*
G02*
X9148150Y4800000I180000J0D01*
G01*
X9398150Y4800000D02*
G75*
G02*
X9038150Y4800000I-180000J0D01*
G01*
X9038150Y4800000D02*
G75*
G02*
X9398150Y4800000I180000J0D01*
G01*
X9648150Y5500000D02*
G75*
G02*
X9188150Y5500000I-230000J0D01*
G01*
X9188150Y5500000D02*
G75*
G02*
X9648150Y5500000I230000J0D01*
G01*
%TO.C,VR5*%
X11803950Y5500000D02*
G75*
G02*
X11343950Y5500000I-230000J0D01*
G01*
X11343950Y5500000D02*
G75*
G02*
X11803950Y5500000I230000J0D01*
G01*
X11953950Y4800000D02*
G75*
G02*
X11593950Y4800000I-180000J0D01*
G01*
X11593950Y4800000D02*
G75*
G02*
X11953950Y4800000I180000J0D01*
G01*
X12203950Y4800000D02*
G75*
G02*
X11843950Y4800000I-180000J0D01*
G01*
X11843950Y4800000D02*
G75*
G02*
X12203950Y4800000I180000J0D01*
G01*
X12453950Y4800000D02*
G75*
G02*
X12093950Y4800000I-180000J0D01*
G01*
X12093950Y4800000D02*
G75*
G02*
X12453950Y4800000I180000J0D01*
G01*
X12703950Y5500000D02*
G75*
G02*
X12243950Y5500000I-230000J0D01*
G01*
X12243950Y5500000D02*
G75*
G02*
X12703950Y5500000I230000J0D01*
G01*
D13*
%TO.C,S1*%
X6750680Y2826060D02*
G75*
G02*
X6399080Y2826060I-175800J0D01*
G01*
X6399080Y2826060D02*
G75*
G02*
X6750680Y2826060I175800J0D01*
G01*
X6750680Y2373940D02*
G75*
G02*
X6399080Y2373940I-175800J0D01*
G01*
X6399080Y2373940D02*
G75*
G02*
X6750680Y2373940I175800J0D01*
G01*
X7400920Y2826060D02*
G75*
G02*
X7049320Y2826060I-175800J0D01*
G01*
X7049320Y2826060D02*
G75*
G02*
X7400920Y2826060I175800J0D01*
G01*
X7400920Y2373940D02*
G75*
G02*
X7049320Y2373940I-175800J0D01*
G01*
X7049320Y2373940D02*
G75*
G02*
X7400920Y2373940I175800J0D01*
G01*
D12*
%TO.C,VR1*%
X5692350Y5500000D02*
G75*
G02*
X5232350Y5500000I-230000J0D01*
G01*
X5232350Y5500000D02*
G75*
G02*
X5692350Y5500000I230000J0D01*
G01*
X5842350Y4800000D02*
G75*
G02*
X5482350Y4800000I-180000J0D01*
G01*
X5482350Y4800000D02*
G75*
G02*
X5842350Y4800000I180000J0D01*
G01*
X6092350Y4800000D02*
G75*
G02*
X5732350Y4800000I-180000J0D01*
G01*
X5732350Y4800000D02*
G75*
G02*
X6092350Y4800000I180000J0D01*
G01*
X6342350Y4800000D02*
G75*
G02*
X5982350Y4800000I-180000J0D01*
G01*
X5982350Y4800000D02*
G75*
G02*
X6342350Y4800000I180000J0D01*
G01*
X6592350Y5500000D02*
G75*
G02*
X6132350Y5500000I-230000J0D01*
G01*
X6132350Y5500000D02*
G75*
G02*
X6592350Y5500000I230000J0D01*
G01*
D13*
%TO.C,S12*%
X10436394Y1226060D02*
G75*
G02*
X10084794Y1226060I-175800J0D01*
G01*
X10084794Y1226060D02*
G75*
G02*
X10436394Y1226060I175800J0D01*
G01*
X10436394Y773940D02*
G75*
G02*
X10084794Y773940I-175800J0D01*
G01*
X10084794Y773940D02*
G75*
G02*
X10436394Y773940I175800J0D01*
G01*
X11086634Y1226060D02*
G75*
G02*
X10735034Y1226060I-175800J0D01*
G01*
X10735034Y1226060D02*
G75*
G02*
X11086634Y1226060I175800J0D01*
G01*
X11086634Y773940D02*
G75*
G02*
X10735034Y773940I-175800J0D01*
G01*
X10735034Y773940D02*
G75*
G02*
X11086634Y773940I175800J0D01*
G01*
%TO.C,S9*%
X6750680Y1226060D02*
G75*
G02*
X6399080Y1226060I-175800J0D01*
G01*
X6399080Y1226060D02*
G75*
G02*
X6750680Y1226060I175800J0D01*
G01*
X6750680Y773940D02*
G75*
G02*
X6399080Y773940I-175800J0D01*
G01*
X6399080Y773940D02*
G75*
G02*
X6750680Y773940I175800J0D01*
G01*
X7400920Y1226060D02*
G75*
G02*
X7049320Y1226060I-175800J0D01*
G01*
X7049320Y1226060D02*
G75*
G02*
X7400920Y1226060I175800J0D01*
G01*
X7400920Y773940D02*
G75*
G02*
X7049320Y773940I-175800J0D01*
G01*
X7049320Y773940D02*
G75*
G02*
X7400920Y773940I175800J0D01*
G01*
%TO.C,S5*%
X11664966Y2826060D02*
G75*
G02*
X11313366Y2826060I-175800J0D01*
G01*
X11313366Y2826060D02*
G75*
G02*
X11664966Y2826060I175800J0D01*
G01*
X11664966Y2373940D02*
G75*
G02*
X11313366Y2373940I-175800J0D01*
G01*
X11313366Y2373940D02*
G75*
G02*
X11664966Y2373940I175800J0D01*
G01*
X12315206Y2826060D02*
G75*
G02*
X11963606Y2826060I-175800J0D01*
G01*
X11963606Y2826060D02*
G75*
G02*
X12315206Y2826060I175800J0D01*
G01*
X12315206Y2373940D02*
G75*
G02*
X11963606Y2373940I-175800J0D01*
G01*
X11963606Y2373940D02*
G75*
G02*
X12315206Y2373940I175800J0D01*
G01*
D12*
%TO.C,VR4*%
X10276050Y5500000D02*
G75*
G02*
X9816050Y5500000I-230000J0D01*
G01*
X9816050Y5500000D02*
G75*
G02*
X10276050Y5500000I230000J0D01*
G01*
X10426050Y4800000D02*
G75*
G02*
X10066050Y4800000I-180000J0D01*
G01*
X10066050Y4800000D02*
G75*
G02*
X10426050Y4800000I180000J0D01*
G01*
X10676050Y4800000D02*
G75*
G02*
X10316050Y4800000I-180000J0D01*
G01*
X10316050Y4800000D02*
G75*
G02*
X10676050Y4800000I180000J0D01*
G01*
X10926050Y4800000D02*
G75*
G02*
X10566050Y4800000I-180000J0D01*
G01*
X10566050Y4800000D02*
G75*
G02*
X10926050Y4800000I180000J0D01*
G01*
X11176050Y5500000D02*
G75*
G02*
X10716050Y5500000I-230000J0D01*
G01*
X10716050Y5500000D02*
G75*
G02*
X11176050Y5500000I230000J0D01*
G01*
D13*
%TO.C,S3*%
X9207823Y2826060D02*
G75*
G02*
X8856223Y2826060I-175800J0D01*
G01*
X8856223Y2826060D02*
G75*
G02*
X9207823Y2826060I175800J0D01*
G01*
X9207823Y2373940D02*
G75*
G02*
X8856223Y2373940I-175800J0D01*
G01*
X8856223Y2373940D02*
G75*
G02*
X9207823Y2373940I175800J0D01*
G01*
X9858063Y2826060D02*
G75*
G02*
X9506463Y2826060I-175800J0D01*
G01*
X9506463Y2826060D02*
G75*
G02*
X9858063Y2826060I175800J0D01*
G01*
X9858063Y2373940D02*
G75*
G02*
X9506463Y2373940I-175800J0D01*
G01*
X9506463Y2373940D02*
G75*
G02*
X9858063Y2373940I175800J0D01*
G01*
%TO.C,S15*%
X14122109Y1226060D02*
G75*
G02*
X13770509Y1226060I-175800J0D01*
G01*
X13770509Y1226060D02*
G75*
G02*
X14122109Y1226060I175800J0D01*
G01*
X14122109Y773940D02*
G75*
G02*
X13770509Y773940I-175800J0D01*
G01*
X13770509Y773940D02*
G75*
G02*
X14122109Y773940I175800J0D01*
G01*
X14772349Y1226060D02*
G75*
G02*
X14420749Y1226060I-175800J0D01*
G01*
X14420749Y1226060D02*
G75*
G02*
X14772349Y1226060I175800J0D01*
G01*
X14772349Y773940D02*
G75*
G02*
X14420749Y773940I-175800J0D01*
G01*
X14420749Y773940D02*
G75*
G02*
X14772349Y773940I175800J0D01*
G01*
%TO.C,S2*%
X7979251Y2826060D02*
G75*
G02*
X7627651Y2826060I-175800J0D01*
G01*
X7627651Y2826060D02*
G75*
G02*
X7979251Y2826060I175800J0D01*
G01*
X7979251Y2373940D02*
G75*
G02*
X7627651Y2373940I-175800J0D01*
G01*
X7627651Y2373940D02*
G75*
G02*
X7979251Y2373940I175800J0D01*
G01*
X8629491Y2826060D02*
G75*
G02*
X8277891Y2826060I-175800J0D01*
G01*
X8277891Y2826060D02*
G75*
G02*
X8629491Y2826060I175800J0D01*
G01*
X8629491Y2373940D02*
G75*
G02*
X8277891Y2373940I-175800J0D01*
G01*
X8277891Y2373940D02*
G75*
G02*
X8629491Y2373940I175800J0D01*
G01*
%TO.C,S14*%
X12893537Y1226060D02*
G75*
G02*
X12541937Y1226060I-175800J0D01*
G01*
X12541937Y1226060D02*
G75*
G02*
X12893537Y1226060I175800J0D01*
G01*
X12893537Y773940D02*
G75*
G02*
X12541937Y773940I-175800J0D01*
G01*
X12541937Y773940D02*
G75*
G02*
X12893537Y773940I175800J0D01*
G01*
X13543777Y1226060D02*
G75*
G02*
X13192177Y1226060I-175800J0D01*
G01*
X13192177Y1226060D02*
G75*
G02*
X13543777Y1226060I175800J0D01*
G01*
X13543777Y773940D02*
G75*
G02*
X13192177Y773940I-175800J0D01*
G01*
X13192177Y773940D02*
G75*
G02*
X13543777Y773940I175800J0D01*
G01*
%TO.C,S10*%
X7979251Y1226060D02*
G75*
G02*
X7627651Y1226060I-175800J0D01*
G01*
X7627651Y1226060D02*
G75*
G02*
X7979251Y1226060I175800J0D01*
G01*
X7979251Y773940D02*
G75*
G02*
X7627651Y773940I-175800J0D01*
G01*
X7627651Y773940D02*
G75*
G02*
X7979251Y773940I175800J0D01*
G01*
X8629491Y1226060D02*
G75*
G02*
X8277891Y1226060I-175800J0D01*
G01*
X8277891Y1226060D02*
G75*
G02*
X8629491Y1226060I175800J0D01*
G01*
X8629491Y773940D02*
G75*
G02*
X8277891Y773940I-175800J0D01*
G01*
X8277891Y773940D02*
G75*
G02*
X8629491Y773940I175800J0D01*
G01*
D12*
%TO.C,VR6*%
X13331850Y5500000D02*
G75*
G02*
X12871850Y5500000I-230000J0D01*
G01*
X12871850Y5500000D02*
G75*
G02*
X13331850Y5500000I230000J0D01*
G01*
X13481850Y4800000D02*
G75*
G02*
X13121850Y4800000I-180000J0D01*
G01*
X13121850Y4800000D02*
G75*
G02*
X13481850Y4800000I180000J0D01*
G01*
X13731850Y4800000D02*
G75*
G02*
X13371850Y4800000I-180000J0D01*
G01*
X13371850Y4800000D02*
G75*
G02*
X13731850Y4800000I180000J0D01*
G01*
X13981850Y4800000D02*
G75*
G02*
X13621850Y4800000I-180000J0D01*
G01*
X13621850Y4800000D02*
G75*
G02*
X13981850Y4800000I180000J0D01*
G01*
X14231850Y5500000D02*
G75*
G02*
X13771850Y5500000I-230000J0D01*
G01*
X13771850Y5500000D02*
G75*
G02*
X14231850Y5500000I230000J0D01*
G01*
%TO.C,VR8*%
X16387650Y5500000D02*
G75*
G02*
X15927650Y5500000I-230000J0D01*
G01*
X15927650Y5500000D02*
G75*
G02*
X16387650Y5500000I230000J0D01*
G01*
X16537650Y4800000D02*
G75*
G02*
X16177650Y4800000I-180000J0D01*
G01*
X16177650Y4800000D02*
G75*
G02*
X16537650Y4800000I180000J0D01*
G01*
X16787650Y4800000D02*
G75*
G02*
X16427650Y4800000I-180000J0D01*
G01*
X16427650Y4800000D02*
G75*
G02*
X16787650Y4800000I180000J0D01*
G01*
X17037650Y4800000D02*
G75*
G02*
X16677650Y4800000I-180000J0D01*
G01*
X16677650Y4800000D02*
G75*
G02*
X17037650Y4800000I180000J0D01*
G01*
X17287650Y5500000D02*
G75*
G02*
X16827650Y5500000I-230000J0D01*
G01*
X16827650Y5500000D02*
G75*
G02*
X17287650Y5500000I230000J0D01*
G01*
%TO.C,J11*%
X18371421Y9570000D02*
G75*
G02*
X18088579Y9570000I-141421J0D01*
G01*
X18088579Y9570000D02*
G75*
G02*
X18371421Y9570000I141421J0D01*
G01*
X18371421Y8570000D02*
G75*
G02*
X18088579Y8570000I-141421J0D01*
G01*
X18088579Y8570000D02*
G75*
G02*
X18371421Y8570000I141421J0D01*
G01*
X18621421Y9820000D02*
G75*
G02*
X18338579Y9820000I-141421J0D01*
G01*
X18338579Y9820000D02*
G75*
G02*
X18621421Y9820000I141421J0D01*
G01*
X18621421Y9070000D02*
G75*
G02*
X18338579Y9070000I-141421J0D01*
G01*
X18338579Y9070000D02*
G75*
G02*
X18621421Y9070000I141421J0D01*
G01*
X18621421Y8320000D02*
G75*
G02*
X18338579Y8320000I-141421J0D01*
G01*
X18338579Y8320000D02*
G75*
G02*
X18621421Y8320000I141421J0D01*
G01*
X19195000Y9820000D02*
G75*
G02*
X18765000Y9820000I-215000J0D01*
G01*
X18765000Y9820000D02*
G75*
G02*
X19195000Y9820000I215000J0D01*
G01*
X19195000Y8320000D02*
G75*
G02*
X18765000Y8320000I-215000J0D01*
G01*
X18765000Y8320000D02*
G75*
G02*
X19195000Y8320000I215000J0D01*
G01*
X19621421Y9320000D02*
G75*
G02*
X19338579Y9320000I-141421J0D01*
G01*
X19338579Y9320000D02*
G75*
G02*
X19621421Y9320000I141421J0D01*
G01*
X19621421Y8820000D02*
G75*
G02*
X19338579Y8820000I-141421J0D01*
G01*
X19338579Y8820000D02*
G75*
G02*
X19621421Y8820000I141421J0D01*
G01*
D13*
%TO.C,S8*%
X15350680Y2826060D02*
G75*
G02*
X14999080Y2826060I-175800J0D01*
G01*
X14999080Y2826060D02*
G75*
G02*
X15350680Y2826060I175800J0D01*
G01*
X15350680Y2373940D02*
G75*
G02*
X14999080Y2373940I-175800J0D01*
G01*
X14999080Y2373940D02*
G75*
G02*
X15350680Y2373940I175800J0D01*
G01*
X16000920Y2826060D02*
G75*
G02*
X15649320Y2826060I-175800J0D01*
G01*
X15649320Y2826060D02*
G75*
G02*
X16000920Y2826060I175800J0D01*
G01*
X16000920Y2373940D02*
G75*
G02*
X15649320Y2373940I-175800J0D01*
G01*
X15649320Y2373940D02*
G75*
G02*
X16000920Y2373940I175800J0D01*
G01*
%TO.C,S7*%
X14122109Y2826060D02*
G75*
G02*
X13770509Y2826060I-175800J0D01*
G01*
X13770509Y2826060D02*
G75*
G02*
X14122109Y2826060I175800J0D01*
G01*
X14122109Y2373940D02*
G75*
G02*
X13770509Y2373940I-175800J0D01*
G01*
X13770509Y2373940D02*
G75*
G02*
X14122109Y2373940I175800J0D01*
G01*
X14772349Y2826060D02*
G75*
G02*
X14420749Y2826060I-175800J0D01*
G01*
X14420749Y2826060D02*
G75*
G02*
X14772349Y2826060I175800J0D01*
G01*
X14772349Y2373940D02*
G75*
G02*
X14420749Y2373940I-175800J0D01*
G01*
X14420749Y2373940D02*
G75*
G02*
X14772349Y2373940I175800J0D01*
G01*
%TO.C,S4*%
X10436394Y2826060D02*
G75*
G02*
X10084794Y2826060I-175800J0D01*
G01*
X10084794Y2826060D02*
G75*
G02*
X10436394Y2826060I175800J0D01*
G01*
X10436394Y2373940D02*
G75*
G02*
X10084794Y2373940I-175800J0D01*
G01*
X10084794Y2373940D02*
G75*
G02*
X10436394Y2373940I175800J0D01*
G01*
X11086634Y2826060D02*
G75*
G02*
X10735034Y2826060I-175800J0D01*
G01*
X10735034Y2826060D02*
G75*
G02*
X11086634Y2826060I175800J0D01*
G01*
X11086634Y2373940D02*
G75*
G02*
X10735034Y2373940I-175800J0D01*
G01*
X10735034Y2373940D02*
G75*
G02*
X11086634Y2373940I175800J0D01*
G01*
%TO.C,S16*%
X15350680Y1226060D02*
G75*
G02*
X14999080Y1226060I-175800J0D01*
G01*
X14999080Y1226060D02*
G75*
G02*
X15350680Y1226060I175800J0D01*
G01*
X15350680Y773940D02*
G75*
G02*
X14999080Y773940I-175800J0D01*
G01*
X14999080Y773940D02*
G75*
G02*
X15350680Y773940I175800J0D01*
G01*
X16000920Y1226060D02*
G75*
G02*
X15649320Y1226060I-175800J0D01*
G01*
X15649320Y1226060D02*
G75*
G02*
X16000920Y1226060I175800J0D01*
G01*
X16000920Y773940D02*
G75*
G02*
X15649320Y773940I-175800J0D01*
G01*
X15649320Y773940D02*
G75*
G02*
X16000920Y773940I175800J0D01*
G01*
D12*
%TO.C,VR2*%
X7220250Y5500000D02*
G75*
G02*
X6760250Y5500000I-230000J0D01*
G01*
X6760250Y5500000D02*
G75*
G02*
X7220250Y5500000I230000J0D01*
G01*
X7370250Y4800000D02*
G75*
G02*
X7010250Y4800000I-180000J0D01*
G01*
X7010250Y4800000D02*
G75*
G02*
X7370250Y4800000I180000J0D01*
G01*
X7620250Y4800000D02*
G75*
G02*
X7260250Y4800000I-180000J0D01*
G01*
X7260250Y4800000D02*
G75*
G02*
X7620250Y4800000I180000J0D01*
G01*
X7870250Y4800000D02*
G75*
G02*
X7510250Y4800000I-180000J0D01*
G01*
X7510250Y4800000D02*
G75*
G02*
X7870250Y4800000I180000J0D01*
G01*
X8120250Y5500000D02*
G75*
G02*
X7660250Y5500000I-230000J0D01*
G01*
X7660250Y5500000D02*
G75*
G02*
X8120250Y5500000I230000J0D01*
G01*
D13*
%TO.C,S11*%
X9207823Y1226060D02*
G75*
G02*
X8856223Y1226060I-175800J0D01*
G01*
X8856223Y1226060D02*
G75*
G02*
X9207823Y1226060I175800J0D01*
G01*
X9207823Y773940D02*
G75*
G02*
X8856223Y773940I-175800J0D01*
G01*
X8856223Y773940D02*
G75*
G02*
X9207823Y773940I175800J0D01*
G01*
X9858063Y1226060D02*
G75*
G02*
X9506463Y1226060I-175800J0D01*
G01*
X9506463Y1226060D02*
G75*
G02*
X9858063Y1226060I175800J0D01*
G01*
X9858063Y773940D02*
G75*
G02*
X9506463Y773940I-175800J0D01*
G01*
X9506463Y773940D02*
G75*
G02*
X9858063Y773940I175800J0D01*
G01*
%TO.C,S13*%
X11664966Y1226060D02*
G75*
G02*
X11313366Y1226060I-175800J0D01*
G01*
X11313366Y1226060D02*
G75*
G02*
X11664966Y1226060I175800J0D01*
G01*
X11664966Y773940D02*
G75*
G02*
X11313366Y773940I-175800J0D01*
G01*
X11313366Y773940D02*
G75*
G02*
X11664966Y773940I175800J0D01*
G01*
X12315206Y1226060D02*
G75*
G02*
X11963606Y1226060I-175800J0D01*
G01*
X11963606Y1226060D02*
G75*
G02*
X12315206Y1226060I175800J0D01*
G01*
X12315206Y773940D02*
G75*
G02*
X11963606Y773940I-175800J0D01*
G01*
X11963606Y773940D02*
G75*
G02*
X12315206Y773940I175800J0D01*
G01*
%TO.C,S6*%
X12893537Y2826060D02*
G75*
G02*
X12541937Y2826060I-175800J0D01*
G01*
X12541937Y2826060D02*
G75*
G02*
X12893537Y2826060I175800J0D01*
G01*
X12893537Y2373940D02*
G75*
G02*
X12541937Y2373940I-175800J0D01*
G01*
X12541937Y2373940D02*
G75*
G02*
X12893537Y2373940I175800J0D01*
G01*
X13543777Y2826060D02*
G75*
G02*
X13192177Y2826060I-175800J0D01*
G01*
X13192177Y2826060D02*
G75*
G02*
X13543777Y2826060I175800J0D01*
G01*
X13543777Y2373940D02*
G75*
G02*
X13192177Y2373940I-175800J0D01*
G01*
X13192177Y2373940D02*
G75*
G02*
X13543777Y2373940I175800J0D01*
G01*
%TD*%
%LPC*%
D14*
%TO.C,J10*%
X19480000Y4020000D03*
X19480000Y4520000D03*
D15*
X18980000Y3520000D03*
X18980000Y5020000D03*
D14*
X18480000Y5020000D03*
X18480000Y4270000D03*
X18480000Y3520000D03*
X18231000Y4770000D03*
X18231000Y3770000D03*
%TD*%
%TO.C,J8*%
X19480000Y6420000D03*
X19480000Y6920000D03*
D15*
X18980000Y5920000D03*
X18980000Y7420000D03*
D14*
X18480000Y7420000D03*
X18480000Y6670000D03*
X18480000Y5920000D03*
X18231000Y7170000D03*
X18231000Y6170000D03*
%TD*%
D16*
%TO.C,H1*%
X500000Y10600000D03*
%TD*%
D17*
%TO.C,VR7*%
X14829750Y4800000D03*
D18*
X15079750Y4800000D03*
X15329750Y4800000D03*
D19*
X14629750Y5500000D03*
X15529750Y5500000D03*
%TD*%
D20*
%TO.C,J_GATE_IN2*%
X12240000Y7310000D03*
X12240000Y7610000D03*
X12240000Y8460000D03*
%TD*%
D17*
%TO.C,VR3*%
X8718150Y4800000D03*
D18*
X8968150Y4800000D03*
X9218150Y4800000D03*
D19*
X8518150Y5500000D03*
X9418150Y5500000D03*
%TD*%
D17*
%TO.C,VR5*%
X11773950Y4800000D03*
D18*
X12023950Y4800000D03*
X12273950Y4800000D03*
D19*
X11573950Y5500000D03*
X12473950Y5500000D03*
%TD*%
D21*
%TO.C,SW17*%
X4556750Y1212500D03*
X4556750Y1466500D03*
X4556750Y1720500D03*
%TD*%
D22*
%TO.C,S1*%
X6574880Y2826060D03*
X7225120Y2826060D03*
X6574880Y2373940D03*
X7225120Y2373940D03*
%TD*%
D17*
%TO.C,VR1*%
X5662350Y4800000D03*
D18*
X5912350Y4800000D03*
X6162350Y4800000D03*
D19*
X5462350Y5500000D03*
X6362350Y5500000D03*
%TD*%
D22*
%TO.C,S12*%
X10260594Y1226060D03*
X10910834Y1226060D03*
X10260594Y773940D03*
X10910834Y773940D03*
%TD*%
%TO.C,S9*%
X6574880Y1226060D03*
X7225120Y1226060D03*
X6574880Y773940D03*
X7225120Y773940D03*
%TD*%
D20*
%TO.C,J_CV_OUT_1*%
X8200000Y8870000D03*
X8200000Y9170000D03*
X8200000Y10020000D03*
%TD*%
D22*
%TO.C,S5*%
X11489166Y2826060D03*
X12139406Y2826060D03*
X11489166Y2373940D03*
X12139406Y2373940D03*
%TD*%
D20*
%TO.C,J_GATE_IN1*%
X12240000Y8870000D03*
X12240000Y9170000D03*
X12240000Y10020000D03*
%TD*%
D23*
%TO.C,A1*%
X279500Y2970500D03*
D24*
X533500Y2970500D03*
X787500Y2970500D03*
X1041500Y2970500D03*
X1295500Y2970500D03*
X1549500Y2970500D03*
X1803500Y2970500D03*
X2057500Y2970500D03*
X2311500Y2970500D03*
X2565500Y2970500D03*
X2819500Y2970500D03*
X3073500Y2970500D03*
X3327500Y2970500D03*
X3581500Y2970500D03*
X3835500Y2970500D03*
X4089500Y2970500D03*
X4343500Y2970500D03*
X4597500Y2970500D03*
X4851500Y2970500D03*
X5105500Y2970500D03*
X5105500Y4494500D03*
X4851500Y4494500D03*
X4597500Y4494500D03*
X4343500Y4494500D03*
X4089500Y4494500D03*
X3835500Y4494500D03*
X3581500Y4494500D03*
X3327500Y4494500D03*
X3073500Y4494500D03*
X2819500Y4494500D03*
X2565500Y4494500D03*
X2311500Y4494500D03*
X2057500Y4494500D03*
X1803500Y4494500D03*
X1549500Y4494500D03*
X1295500Y4494500D03*
X1041500Y4494500D03*
X787500Y4494500D03*
X533500Y4494500D03*
X279500Y4494500D03*
%TD*%
D20*
%TO.C,J_CV_OUT_2*%
X8200000Y7310000D03*
X8200000Y7610000D03*
X8200000Y8460000D03*
%TD*%
D17*
%TO.C,VR4*%
X10246050Y4800000D03*
D18*
X10496050Y4800000D03*
X10746050Y4800000D03*
D19*
X10046050Y5500000D03*
X10946050Y5500000D03*
%TD*%
D22*
%TO.C,S3*%
X9032023Y2826060D03*
X9682263Y2826060D03*
X9032023Y2373940D03*
X9682263Y2373940D03*
%TD*%
%TO.C,S15*%
X13946309Y1226060D03*
X14596549Y1226060D03*
X13946309Y773940D03*
X14596549Y773940D03*
%TD*%
D20*
%TO.C,J_CV_IN_1*%
X11230000Y8870000D03*
X11230000Y9170000D03*
X11230000Y10020000D03*
%TD*%
D24*
%TO.C,J5*%
X17360000Y630000D03*
X17360000Y1330000D03*
%TD*%
D25*
%TO.C,J2*%
X13228500Y9711500D03*
X14851500Y9711500D03*
X13228500Y10346500D03*
X14851500Y10346500D03*
X13228500Y9076500D03*
X14851500Y9076500D03*
%TD*%
D22*
%TO.C,S2*%
X7803451Y2826060D03*
X8453691Y2826060D03*
X7803451Y2373940D03*
X8453691Y2373940D03*
%TD*%
%TO.C,S14*%
X12717737Y1226060D03*
X13367977Y1226060D03*
X12717737Y773940D03*
X13367977Y773940D03*
%TD*%
D26*
%TO.C,J7*%
X600000Y7280000D03*
X600000Y6702000D03*
%TD*%
D16*
%TO.C,H2*%
X500000Y500000D03*
%TD*%
D22*
%TO.C,S10*%
X7803451Y1226060D03*
X8453691Y1226060D03*
X7803451Y773940D03*
X8453691Y773940D03*
%TD*%
D17*
%TO.C,VR6*%
X13301850Y4800000D03*
D18*
X13551850Y4800000D03*
X13801850Y4800000D03*
D19*
X13101850Y5500000D03*
X14001850Y5500000D03*
%TD*%
D20*
%TO.C,J_CV_IN_2*%
X11230000Y7310000D03*
X11230000Y7610000D03*
X11230000Y8460000D03*
%TD*%
D21*
%TO.C,SW18*%
X3207375Y1212500D03*
X3207375Y1466500D03*
X3207375Y1720500D03*
%TD*%
D25*
%TO.C,J4*%
X3180000Y9715000D03*
X4803000Y9715000D03*
X3180000Y10350000D03*
X4803000Y10350000D03*
X3180000Y9080000D03*
X4803000Y9080000D03*
%TD*%
D16*
%TO.C,H3*%
X19200000Y10600000D03*
%TD*%
D17*
%TO.C,VR8*%
X16357650Y4800000D03*
D18*
X16607650Y4800000D03*
X16857650Y4800000D03*
D19*
X16157650Y5500000D03*
X17057650Y5500000D03*
%TD*%
D14*
%TO.C,J11*%
X19480000Y8820000D03*
X19480000Y9320000D03*
D15*
X18980000Y8320000D03*
X18980000Y9820000D03*
D14*
X18480000Y9820000D03*
X18480000Y9070000D03*
X18480000Y8320000D03*
X18231000Y9570000D03*
X18231000Y8570000D03*
%TD*%
D27*
%TO.C,U11*%
X17720500Y6426000D03*
D28*
X17720500Y6680000D03*
X17720500Y6934000D03*
X16958500Y6934000D03*
X16958500Y6680000D03*
X16958500Y6426000D03*
%TD*%
D29*
%TO.C,MICRO_SD7*%
X474440Y2330380D03*
X474440Y1532820D03*
%TD*%
D22*
%TO.C,S8*%
X15174880Y2826060D03*
X15825120Y2826060D03*
X15174880Y2373940D03*
X15825120Y2373940D03*
%TD*%
%TO.C,S7*%
X13946309Y2826060D03*
X14596549Y2826060D03*
X13946309Y2373940D03*
X14596549Y2373940D03*
%TD*%
%TO.C,S4*%
X10260594Y2826060D03*
X10910834Y2826060D03*
X10260594Y2373940D03*
X10910834Y2373940D03*
%TD*%
%TO.C,S16*%
X15174880Y1226060D03*
X15825120Y1226060D03*
X15174880Y773940D03*
X15825120Y773940D03*
%TD*%
D17*
%TO.C,VR2*%
X7190250Y4800000D03*
D18*
X7440250Y4800000D03*
X7690250Y4800000D03*
D19*
X6990250Y5500000D03*
X7890250Y5500000D03*
%TD*%
D22*
%TO.C,S11*%
X9032023Y1226060D03*
X9682263Y1226060D03*
X9032023Y773940D03*
X9682263Y773940D03*
%TD*%
D25*
%TO.C,J3*%
X5428500Y9711500D03*
X7051500Y9711500D03*
X5428500Y10346500D03*
X7051500Y10346500D03*
X5428500Y9076500D03*
X7051500Y9076500D03*
%TD*%
D16*
%TO.C,H4*%
X19200000Y500000D03*
%TD*%
D22*
%TO.C,S13*%
X11489166Y1226060D03*
X12139406Y1226060D03*
X11489166Y773940D03*
X12139406Y773940D03*
%TD*%
D25*
%TO.C,J1*%
X15468500Y9711500D03*
X17091500Y9711500D03*
X15468500Y10346500D03*
X17091500Y10346500D03*
X15468500Y9076500D03*
X17091500Y9076500D03*
%TD*%
D22*
%TO.C,S6*%
X12717737Y2826060D03*
X13367977Y2826060D03*
X12717737Y2373940D03*
X13367977Y2373940D03*
%TD*%
%LPD*%
M02*
